<svg width="37" height="38" viewBox="0 0 37 38" fill="none" xmlns="http://www.w3.org/2000/svg">
<path d="M36.7151 18.6992C37.1132 19.5756 37.0761 20.4529 36.7151 21.3302C36.5991 21.8038 36.2632 22.1534 35.9606 22.4926C35.1588 23.3936 34.911 24.4092 35.1681 25.5849C35.2717 26.0117 35.3357 26.4475 35.3593 26.8866C35.4521 28.4261 34.6883 29.3669 33.3501 29.9183C32.4732 30.2811 31.6417 30.7179 31.0672 31.5288C30.7192 32.0613 30.6255 32.6922 30.4306 33.2815C29.9443 34.7642 29.098 35.3828 27.5621 35.3412C26.9626 35.325 26.3631 35.3232 25.7636 35.3165C25.0871 35.3089 24.5572 35.6282 24.0784 36.082C23.6143 36.5235 23.2116 37.0294 22.704 37.415C21.8511 38.0696 20.9315 38.1909 19.9747 37.704C19.4374 37.433 18.927 37.1033 18.4073 36.7954C17.6908 36.371 16.9521 36.2563 16.1494 36.5339C15.5678 36.7363 14.975 36.9036 14.3741 37.0351C13.3115 37.2681 12.4689 36.8522 11.8267 36.0034C11.5356 35.6169 11.2788 35.2048 11.0593 34.7718C10.5479 33.7618 9.73127 33.237 8.65571 33.075C8.291 33.02 7.93 32.9405 7.56808 32.8713C6.24195 32.6202 5.37704 31.5876 5.34085 30.1996C5.32392 29.5879 5.26968 28.9779 5.17844 28.3731C5.07451 27.6767 4.68196 27.168 4.15763 26.7436C3.79663 26.4489 3.43471 26.1543 3.06721 25.8691C2.5633 25.4769 2.27284 24.9274 2 24.3675L2 23.1359C2.08074 22.4727 2.3712 21.8815 2.64961 21.2913C3.03381 20.4737 3.06443 19.6646 2.70158 18.8366C2.6329 18.6803 2.55959 18.5202 2.58186 18.3383C3.26302 16.561 4.25785 14.9798 5.4587 13.5227C8.53905 9.77397 12.9378 7.40959 17.7085 6.9383C21.3556 6.57166 24.8022 7.2642 28.0438 8.98467C30.7628 10.4294 32.9622 12.4834 34.7078 15.0556C34.8342 15.2348 34.9403 15.428 35.0243 15.6316C35.1356 16.3724 35.5356 16.9579 35.9727 17.5349C36.2437 17.9034 36.6149 18.2123 36.7151 18.6992Z" fill="white"/>
<path d="M34.951 15.6754C33.0365 12.6059 30.4752 10.2753 27.2531 8.72441C25.3175 7.7996 23.2365 7.2328 21.1069 7.05037C18.5163 6.81202 15.9058 7.14248 13.4508 8.01955C11.342 8.76984 9.39025 9.91812 7.69709 11.4046C5.72135 13.1184 4.19941 15.1781 3.03569 17.5304C2.90484 17.7929 2.87792 18.1093 2.64592 18.3206C2.24223 18.1311 2.25244 17.6934 2.1021 17.3533C2.02694 17.1827 2.08633 16.98 2.00281 16.8066L2.00281 15.7645C2.24183 14.9464 2.77352 14.2501 3.49227 13.8138C4.772 12.9981 5.2722 11.8243 5.34829 10.3085C5.46708 7.99302 6.01089 7.3469 8.20657 7.0191C9.67283 6.80025 10.6834 6.12761 11.3312 4.79083C11.5753 4.28777 11.8759 3.80649 12.3344 3.45406C12.9914 2.94815 13.7162 2.78236 14.5096 2.98036C15.0451 3.11584 15.5694 3.29395 16.0993 3.45406C16.9392 3.70512 17.7382 3.63312 18.4936 3.15658C18.926 2.88468 19.3613 2.61467 19.8077 2.3693C20.9389 1.7497 22.059 1.91549 22.9796 2.8231C23.2221 3.04252 23.4517 3.27629 23.6673 3.52322C24.5693 4.66009 25.7683 4.8562 27.0879 4.67715C28.8697 4.43461 29.9304 5.112 30.4919 6.85615C30.6673 7.4028 30.7591 7.9826 31.071 8.47904C31.7206 9.40274 32.7237 9.7817 33.6879 10.2194C34.7932 10.7206 35.3417 11.614 35.4326 12.8257C35.3769 13.702 35.1124 14.548 35.0735 15.4272C35.0738 15.4755 35.0628 15.5232 35.0415 15.5664C35.0202 15.6095 34.9892 15.6469 34.951 15.6754Z" fill="white"/>
<path d="M34.7151 16.6992C35.1132 17.5756 35.0761 18.4529 34.7151 19.3302C34.5991 19.8038 34.2632 20.1534 33.9606 20.4926C33.1588 21.3936 32.911 22.4092 33.1681 23.5849C33.2717 24.0117 33.3357 24.4475 33.3593 24.8866C33.4521 26.4261 32.6883 27.3669 31.3501 27.9183C30.4732 28.2811 29.6417 28.7179 29.0672 29.5288C28.7192 30.0613 28.6255 30.6922 28.4306 31.2815C27.9443 32.7642 27.098 33.3828 25.5621 33.3412C24.9626 33.325 24.3631 33.3232 23.7636 33.3165C23.0871 33.3089 22.5572 33.6282 22.0784 34.082C21.6143 34.5235 21.2116 35.0294 20.704 35.415C19.8511 36.0696 18.9315 36.1909 17.9747 35.704C17.4374 35.433 16.927 35.1033 16.4073 34.7954C15.6908 34.371 14.9521 34.2563 14.1494 34.5339C13.5678 34.7363 12.975 34.9036 12.3741 35.0351C11.3115 35.2681 10.4689 34.8522 9.82673 34.0034C9.53559 33.6169 9.27875 33.2048 9.05926 32.7718C8.54793 31.7618 7.73127 31.237 6.65571 31.075C6.291 31.02 5.93 30.9405 5.56808 30.8713C4.24195 30.6202 3.37704 29.5876 3.34085 28.1996C3.32392 27.5879 3.26968 26.9779 3.17844 26.3731C3.07451 25.6767 2.68196 25.168 2.15763 24.7436C1.79663 24.4489 1.43471 24.1543 1.06721 23.8691C0.563303 23.4769 0.272835 22.9274 -5.95954e-07 22.3675L-6.4979e-07 21.1359C0.0807364 20.4727 0.371204 19.8815 0.649608 19.2913C1.03381 18.4737 1.06443 17.6646 0.701577 16.8366C0.632904 16.6803 0.559591 16.5202 0.581863 16.3383C1.26302 14.561 2.25785 12.9798 3.4587 11.5227C6.53905 7.77397 10.9378 5.40959 15.7085 4.9383C19.3556 4.57166 22.8022 5.2642 26.0438 6.98467C28.7628 8.42944 30.9622 10.4834 32.7078 13.0556C32.8342 13.2348 32.9403 13.428 33.0243 13.6316C33.1356 14.3724 33.5356 14.9579 33.9727 15.5349C34.2437 15.9034 34.6149 16.2123 34.7151 16.6992Z" fill="#00D889"/>
<path d="M32.951 13.6754C31.0365 10.6059 28.4752 8.27529 25.2531 6.72441C23.3175 5.7996 21.2365 5.2328 19.1069 5.05037C16.5163 4.81202 13.9058 5.14248 11.4508 6.01955C9.34204 6.76984 7.39025 7.91812 5.69709 9.40459C3.72135 11.1184 2.19941 13.1781 1.03569 15.5304C0.904836 15.7929 0.877924 16.1093 0.64592 16.3206C0.242235 16.1311 0.252443 15.6934 0.102105 15.3533C0.0269359 15.1827 0.0863287 14.98 0.00280755 14.8066L0.00280751 13.7645C0.241826 12.9464 0.77352 12.2501 1.49227 11.8138C2.772 10.9981 3.2722 9.82428 3.34829 8.30845C3.46708 5.99302 4.01089 5.3469 6.20657 5.0191C7.67283 4.80025 8.68344 4.12761 9.33119 2.79083C9.57526 2.28777 9.87594 1.80649 10.3344 1.45406C10.9914 0.948153 11.7162 0.78236 12.5096 0.980365C13.0451 1.11584 13.5694 1.29395 14.0993 1.45406C14.9392 1.70512 15.7382 1.63312 16.4936 1.15658C16.926 0.884679 17.3613 0.614672 17.8077 0.369298C18.9389 -0.250298 20.059 -0.084506 20.9796 0.823097C21.2221 1.04252 21.4517 1.27629 21.6673 1.52322C22.5693 2.66009 23.7683 2.8562 25.0879 2.67715C26.8697 2.43461 27.9304 3.112 28.4919 4.85615C28.6673 5.4028 28.7591 5.9826 29.071 6.47904C29.7206 7.40274 30.7237 7.7817 31.6879 8.2194C32.7932 8.72057 33.3417 9.61396 33.4326 10.8257C33.3769 11.702 33.1124 12.548 33.0735 13.4272C33.0738 13.4755 33.0628 13.5232 33.0415 13.5664C33.0202 13.6095 32.9892 13.6469 32.951 13.6754Z" fill="#00D889"/>
<path d="M21.9355 19.1111L11.0294 19.1867C10.7839 19.188 10.5763 19.1036 10.4064 18.9335C10.237 18.7637 10.1516 18.5546 10.1503 18.306C10.1489 18.0574 10.2323 17.8472 10.4003 17.6751C10.5679 17.5035 10.7744 17.4171 11.0199 17.4157L21.9262 17.3712L17.2377 12.6743C17.0629 12.4992 16.9746 12.2925 16.9729 12.0543C16.9721 11.8161 17.0581 11.6085 17.231 11.4315C17.4039 11.2545 17.6079 11.1651 17.8431 11.1634C18.0783 11.1625 18.2833 11.2496 18.4581 11.4247L24.6272 17.6049C24.802 17.78 24.89 17.9864 24.8913 18.2242C24.8926 18.4628 24.8068 18.6706 24.6339 18.8476L18.5315 25.0954C18.3586 25.2724 18.1546 25.3613 17.9194 25.3622C17.6842 25.3639 17.4792 25.2772 17.3044 25.1021C17.1296 24.927 17.0418 24.7204 17.0409 24.4822C17.0392 24.244 17.1248 24.0363 17.2977 23.8593L21.9355 19.1111Z" fill="white"/>
</svg>
