<svg width="220" height="220" viewBox="0 0 220 220" fill="none" xmlns="http://www.w3.org/2000/svg">
<mask id="path-1-inside-1_8_2" fill="white">
<path d="M75.3415 140.648L50.6541 153.479C44.372 156.729 38.1297 160.081 31.7976 163.207C29.2509 164.421 26.3507 164.664 23.639 163.89C20.9272 163.116 18.5893 161.379 17.0622 159.003C15.5351 156.627 14.9232 153.775 15.3409 150.979C15.7585 148.183 17.1772 145.635 19.3317 143.811C20.2589 143.088 21.2594 142.464 22.3166 141.951C35.8324 134.891 49.3584 127.851 62.8947 120.83C63.5546 120.492 64.2054 120.109 65.4481 119.418L62.7081 119.295C47.111 118.593 31.5029 117.89 15.9058 117.188C13.8994 117.127 11.9436 116.543 10.2309 115.493C8.51828 114.444 7.10778 112.966 6.1383 111.203C5.16882 109.441 4.67376 107.456 4.70186 105.444C4.72996 103.432 5.28024 101.461 6.29855 99.7265C7.3616 97.7889 8.96564 96.2044 10.9138 95.1676C12.862 94.1308 15.0696 93.6867 17.2656 93.8899C32.7296 94.5858 48.1935 95.2818 63.6575 95.9778L66.453 96.1036C65.3752 95.353 64.7836 94.914 64.1673 94.5297C51.144 86.2016 38.1172 77.8697 25.0868 69.5339C22.9821 68.3177 21.3109 66.4704 20.3084 64.2519C19.3059 62.0333 19.0225 59.5553 19.4982 57.1665C19.9738 54.7777 21.1845 52.5984 22.9599 50.9353C24.7354 49.2722 26.9861 48.209 29.3954 47.8952C32.3879 47.5241 35.4105 48.2882 37.8692 50.0375C50.7042 58.2679 63.5584 66.4843 76.4317 74.6867C77.0475 75.0822 77.687 75.4453 78.856 76.1444C78.307 75.0052 78.0391 74.291 77.7121 73.6522C70.6289 59.9597 63.5412 46.2855 56.4489 32.6297C52.5139 24.9745 56.8092 16.4749 65.1225 15.2665C69.979 14.5489 74.6435 17.1104 77.1914 21.995C82.4851 32.1447 87.7562 42.3045 93.0045 52.4744C95.1619 56.6505 97.3315 60.8048 99.8913 64.9322L99.9884 62.7744C100.689 47.2033 101.394 31.5543 102.096 15.9387C102.125 13.7965 102.773 11.7085 103.962 9.92811C105.151 8.14773 106.83 6.75155 108.795 5.909C110.667 4.95395 112.772 4.55525 114.862 4.7599C116.952 4.96455 118.94 5.76402 120.592 7.06408C122.217 8.21357 123.513 9.77125 124.348 11.581C125.184 13.3908 125.53 15.389 125.352 17.3755L123.138 66.5802C123.853 65.498 124.245 64.9583 124.614 64.4177C132.99 51.3615 141.339 38.3079 149.663 25.2568C153.178 19.7758 159.343 17.8911 164.829 20.4784C166.324 21.1839 167.652 22.2017 168.723 23.4638C169.794 24.7259 170.583 26.203 171.037 27.7961C171.492 29.3892 171.602 31.0614 171.359 32.7006C171.116 34.3397 170.527 35.908 169.63 37.3002C165.877 43.3835 161.962 49.3592 158.123 55.3829L144.562 76.6163C144.111 77.2676 143.829 78.0208 143.741 78.8083L146.016 77.6402C159.545 70.6187 173.086 63.5902 186.637 56.5548C193.203 53.1726 200.663 55.871 203.245 62.4623C205.457 68.1343 203.104 74.2471 197.388 77.2553C187.938 82.2241 178.437 87.1014 168.934 92.0231C164.04 94.5668 159.144 97.1549 154.323 100.047L156.541 100.147C172.072 100.846 187.602 101.545 203.133 102.244C205.379 102.246 207.572 102.93 209.421 104.208C211.271 105.485 212.691 107.294 213.493 109.397C214.405 111.37 214.714 113.569 214.382 115.717C214.05 117.866 213.091 119.868 211.627 121.472C210.442 122.896 208.93 124.011 207.222 124.722C205.514 125.433 203.659 125.719 201.817 125.555L152.818 123.35C153.723 124.004 154.227 124.394 154.768 124.742C167.841 133.109 180.921 141.499 194.007 149.912C199.171 153.231 201.12 158.825 199.113 164.151C198.492 165.8 197.506 167.286 196.231 168.499C194.955 169.712 193.422 170.62 191.747 171.154C190.072 171.689 188.298 171.837 186.558 171.586C184.818 171.336 183.157 170.694 181.7 169.708C173.592 164.618 165.557 159.408 157.497 154.253C151.956 150.661 146.411 147.168 140.479 143.858C140.804 144.542 141.117 145.247 141.498 145.933C148.555 159.55 155.608 173.163 162.658 186.772C165.572 192.409 164.251 198.557 159.492 202.043C158.12 203.063 156.54 203.768 154.866 204.106C153.192 204.444 151.463 204.409 149.805 204.001C148.146 203.593 146.597 202.823 145.269 201.747C143.941 200.67 142.866 199.313 142.121 197.773C136.858 187.773 131.698 177.7 126.503 167.659C124.232 163.288 121.961 158.917 119.312 154.541L119.219 156.61C118.518 172.181 117.814 187.841 117.111 203.445C116.948 206.542 115.565 209.446 113.266 211.521C110.968 213.595 107.941 214.669 104.853 214.506C101.765 214.344 98.868 212.958 96.7996 210.654C94.7311 208.349 93.6606 205.315 93.8236 202.219C94.52 186.744 95.2165 171.269 95.913 155.795L96.0396 152.981C95.3129 154.063 94.8552 154.599 94.4944 155.207C86.1728 168.206 77.8422 181.242 69.5025 194.315C66.0019 199.73 59.748 201.61 54.2884 198.935C47.9371 195.818 45.8823 188.125 49.7871 181.882C55.3408 173.082 60.9812 164.331 66.5335 155.565C69.26 151.296 71.9829 147.024 74.7023 142.748C75.0612 142.185 75.3766 141.597 75.7137 141.021L75.3415 140.648Z"/>
</mask>
<path d="M75.3415 140.648L50.6541 153.479C44.372 156.729 38.1297 160.081 31.7976 163.207C29.2509 164.421 26.3507 164.664 23.639 163.89C20.9272 163.116 18.5893 161.379 17.0622 159.003C15.5351 156.627 14.9232 153.775 15.3409 150.979C15.7585 148.183 17.1772 145.635 19.3317 143.811C20.2589 143.088 21.2594 142.464 22.3166 141.951C35.8324 134.891 49.3584 127.851 62.8947 120.83C63.5546 120.492 64.2054 120.109 65.4481 119.418L62.7081 119.295C47.111 118.593 31.5029 117.89 15.9058 117.188C13.8994 117.127 11.9436 116.543 10.2309 115.493C8.51828 114.444 7.10778 112.966 6.1383 111.203C5.16882 109.441 4.67376 107.456 4.70186 105.444C4.72996 103.432 5.28024 101.461 6.29855 99.7265C7.3616 97.7889 8.96564 96.2044 10.9138 95.1676C12.862 94.1308 15.0696 93.6867 17.2656 93.8899C32.7296 94.5858 48.1935 95.2818 63.6575 95.9778L66.453 96.1036C65.3752 95.353 64.7836 94.914 64.1673 94.5297C51.144 86.2016 38.1172 77.8697 25.0868 69.5339C22.9821 68.3177 21.3109 66.4704 20.3084 64.2519C19.3059 62.0333 19.0225 59.5553 19.4982 57.1665C19.9738 54.7777 21.1845 52.5984 22.9599 50.9353C24.7354 49.2722 26.9861 48.209 29.3954 47.8952C32.3879 47.5241 35.4105 48.2882 37.8692 50.0375C50.7042 58.2679 63.5584 66.4843 76.4317 74.6867C77.0475 75.0822 77.687 75.4453 78.856 76.1444C78.307 75.0052 78.0391 74.291 77.7121 73.6522C70.6289 59.9597 63.5412 46.2855 56.4489 32.6297C52.5139 24.9745 56.8092 16.4749 65.1225 15.2665C69.979 14.5489 74.6435 17.1104 77.1914 21.995C82.4851 32.1447 87.7562 42.3045 93.0045 52.4744C95.1619 56.6505 97.3315 60.8048 99.8913 64.9322L99.9884 62.7744C100.689 47.2033 101.394 31.5543 102.096 15.9387C102.125 13.7965 102.773 11.7085 103.962 9.92811C105.151 8.14773 106.83 6.75155 108.795 5.909C110.667 4.95395 112.772 4.55525 114.862 4.7599C116.952 4.96455 118.94 5.76402 120.592 7.06408C122.217 8.21357 123.513 9.77125 124.348 11.581C125.184 13.3908 125.53 15.389 125.352 17.3755L123.138 66.5802C123.853 65.498 124.245 64.9583 124.614 64.4177C132.99 51.3615 141.339 38.3079 149.663 25.2568C153.178 19.7758 159.343 17.8911 164.829 20.4784C166.324 21.1839 167.652 22.2017 168.723 23.4638C169.794 24.7259 170.583 26.203 171.037 27.7961C171.492 29.3892 171.602 31.0614 171.359 32.7006C171.116 34.3397 170.527 35.908 169.63 37.3002C165.877 43.3835 161.962 49.3592 158.123 55.3829L144.562 76.6163C144.111 77.2676 143.829 78.0208 143.741 78.8083L146.016 77.6402C159.545 70.6187 173.086 63.5902 186.637 56.5548C193.203 53.1726 200.663 55.871 203.245 62.4623C205.457 68.1343 203.104 74.2471 197.388 77.2553C187.938 82.2241 178.437 87.1014 168.934 92.0231C164.04 94.5668 159.144 97.1549 154.323 100.047L156.541 100.147C172.072 100.846 187.602 101.545 203.133 102.244C205.379 102.246 207.572 102.93 209.421 104.208C211.271 105.485 212.691 107.294 213.493 109.397C214.405 111.37 214.714 113.569 214.382 115.717C214.05 117.866 213.091 119.868 211.627 121.472C210.442 122.896 208.93 124.011 207.222 124.722C205.514 125.433 203.659 125.719 201.817 125.555L152.818 123.35C153.723 124.004 154.227 124.394 154.768 124.742C167.841 133.109 180.921 141.499 194.007 149.912C199.171 153.231 201.12 158.825 199.113 164.151C198.492 165.8 197.506 167.286 196.231 168.499C194.955 169.712 193.422 170.62 191.747 171.154C190.072 171.689 188.298 171.837 186.558 171.586C184.818 171.336 183.157 170.694 181.7 169.708C173.592 164.618 165.557 159.408 157.497 154.253C151.956 150.661 146.411 147.168 140.479 143.858C140.804 144.542 141.117 145.247 141.498 145.933C148.555 159.55 155.608 173.163 162.658 186.772C165.572 192.409 164.251 198.557 159.492 202.043C158.12 203.063 156.54 203.768 154.866 204.106C153.192 204.444 151.463 204.409 149.805 204.001C148.146 203.593 146.597 202.823 145.269 201.747C143.941 200.67 142.866 199.313 142.121 197.773C136.858 187.773 131.698 177.7 126.503 167.659C124.232 163.288 121.961 158.917 119.312 154.541L119.219 156.61C118.518 172.181 117.814 187.841 117.111 203.445C116.948 206.542 115.565 209.446 113.266 211.521C110.968 213.595 107.941 214.669 104.853 214.506C101.765 214.344 98.868 212.958 96.7996 210.654C94.7311 208.349 93.6606 205.315 93.8236 202.219C94.52 186.744 95.2165 171.269 95.913 155.795L96.0396 152.981C95.3129 154.063 94.8552 154.599 94.4944 155.207C86.1728 168.206 77.8422 181.242 69.5025 194.315C66.0019 199.73 59.748 201.61 54.2884 198.935C47.9371 195.818 45.8823 188.125 49.7871 181.882C55.3408 173.082 60.9812 164.331 66.5335 155.565C69.26 151.296 71.9829 147.024 74.7023 142.748C75.0612 142.185 75.3766 141.597 75.7137 141.021L75.3415 140.648Z" stroke="#FF7545" stroke-opacity="0.4" stroke-width="4" mask="url(#path-1-inside-1_8_2)"/>
</svg>
