<svg width="453" height="453" viewBox="0 0 453 453" fill="none" xmlns="http://www.w3.org/2000/svg">
<path d="M155.652 296.7L103.696 326.744C90.4737 334.358 77.347 342.187 64.0047 349.536C58.6344 352.399 52.4082 353.204 46.4894 351.8C40.5706 350.396 35.3641 346.879 31.8428 341.907C28.3214 336.935 26.7262 330.847 27.3551 324.782C27.984 318.716 30.7939 313.088 35.26 308.948C37.1878 307.299 39.2834 305.858 41.512 304.649C69.9532 288.126 98.4184 271.642 126.908 255.199C128.297 254.407 129.662 253.518 132.273 251.909H126.357C92.6774 251.909 58.9743 251.909 25.2952 251.909C20.9655 251.971 16.6942 250.902 12.9017 248.807C9.1092 246.712 5.92624 243.663 3.66614 239.96C1.40603 236.256 0.146686 232.027 0.0120575 227.688C-0.122571 223.348 0.872158 219.048 2.89833 215.212C5.00123 210.933 8.3042 207.363 12.4019 204.94C16.4996 202.517 21.2138 201.345 25.9659 201.57C59.3576 201.57 92.7493 201.57 126.141 201.57H132.177C129.782 200.057 128.465 199.169 127.099 198.4C98.2268 181.717 69.3464 165.025 40.458 148.326C35.8045 145.909 32.024 142.09 29.6484 137.406C27.2728 132.723 26.4218 127.41 27.2151 122.216C28.0084 117.022 30.4061 112.209 34.0708 108.453C37.7354 104.696 42.4826 102.187 47.6442 101.277C54.0569 100.187 60.6444 101.541 66.1126 105.072C94.5698 121.563 123.067 138.022 151.604 154.45C152.969 155.242 154.383 155.963 156.97 157.356C155.676 154.954 155.029 153.441 154.263 152.096C137.671 123.276 121.071 94.4965 104.463 65.7567C95.2405 49.6416 103.672 30.9087 121.47 27.4983C131.866 25.4809 142.166 30.5484 148.131 40.8275C160.523 62.1862 172.867 83.5689 185.163 104.976C190.218 113.766 195.296 122.508 201.212 131.154V126.494C201.212 92.8713 201.212 59.0801 201.212 25.3609C201.066 20.7417 202.26 16.1792 204.65 12.2273C207.04 8.27531 210.522 5.10376 214.675 3.09754C218.616 0.857877 223.114 -0.205473 227.638 0.0328135C232.162 0.2711 236.524 1.80109 240.209 4.44247C243.823 6.76194 246.766 9.99306 248.742 13.812C250.718 17.6309 251.658 21.9035 251.468 26.2014V132.451C252.905 130.049 253.695 128.848 254.438 127.647C271.222 98.6994 287.949 69.7594 304.621 40.8275C311.664 28.6751 324.767 24.0159 336.839 29.0594C340.13 30.4345 343.09 32.4993 345.52 35.1151C347.95 37.731 349.793 40.8376 350.928 44.2265C352.062 47.6154 352.46 51.2083 352.096 54.7643C351.732 58.3202 350.614 61.757 348.816 64.844C341.319 78.3173 333.462 91.5744 325.773 104.928L298.609 152C297.701 153.447 297.166 155.098 297.052 156.803L301.843 154.065C330.316 137.622 358.813 121.163 387.334 104.687C401.155 96.762 417.492 101.854 423.696 115.807C429.014 127.815 424.534 141.217 412.51 148.253C392.628 159.877 372.626 171.309 352.625 182.837C342.325 188.793 332.025 194.846 321.916 201.546H326.707C360.242 201.546 393.778 201.546 427.313 201.546C432.153 201.332 436.945 202.595 441.055 205.167C445.164 207.74 448.399 211.502 450.333 215.956C452.488 220.119 453.367 224.827 452.86 229.489C452.353 234.152 450.482 238.559 447.482 242.158C445.066 245.341 441.917 247.89 438.305 249.588C434.693 251.286 430.724 252.082 426.738 251.909H320.934C322.946 253.23 324.072 254.022 325.27 254.719C354.254 271.482 383.254 288.294 412.27 305.153C423.72 311.806 428.463 323.67 424.654 335.342C423.475 338.956 421.496 342.255 418.865 344.992C416.234 347.73 413.018 349.835 409.46 351.15C405.902 352.464 402.094 352.954 398.32 352.583C394.546 352.213 390.905 350.99 387.669 349.008C369.704 338.825 351.882 328.377 334.013 318.05C321.724 310.845 309.436 303.857 296.333 297.3C297.1 298.741 297.842 300.23 298.729 301.671C315.257 330.331 331.777 358.983 348.289 387.626C355.116 399.49 352.864 412.868 342.948 420.841C340.09 423.173 336.755 424.844 333.179 425.736C329.604 426.628 325.876 426.718 322.262 426C318.648 425.282 315.236 423.774 312.27 421.583C309.303 419.392 306.855 416.572 305.1 413.324C292.788 392.285 280.691 371.079 268.523 349.944C263.205 340.746 257.887 331.548 251.755 322.373V326.84C251.755 360.464 251.755 394.279 251.755 427.974C251.704 434.662 249.006 441.056 244.253 445.749C239.5 450.442 233.083 453.05 226.412 452.999C219.741 452.948 213.364 450.243 208.683 445.477C204.002 440.712 201.401 434.278 201.452 427.59C201.452 394.175 201.452 360.76 201.452 327.345V321.269C199.991 323.67 199.057 324.871 198.338 326.216C181.666 355.036 164.978 383.936 148.274 412.916C141.256 424.924 127.961 429.583 115.937 424.348C101.948 418.247 96.7736 401.868 104.583 388.035C115.697 368.533 127.003 349.128 138.118 329.698C143.579 320.236 149.033 310.765 154.478 301.287C155.197 300.038 155.82 298.741 156.491 297.468L155.652 296.7Z" fill="#FF7545"/>
</svg>
