<svg width="91" height="97" viewBox="0 0 91 97" fill="none" xmlns="http://www.w3.org/2000/svg">
<circle cx="45.118" cy="51.2033" r="44.618" fill="white" stroke="black"/>
<circle cx="45.118" cy="45.118" r="44.618" fill="#00D889" stroke="black"/>
<path d="M19.5199 41V29.066C20.2453 29.032 20.8686 29.0037 21.3899 28.981C21.9226 28.9583 22.3703 28.947 22.7329 28.947C23.0956 28.9357 23.3789 28.93 23.5829 28.93C24.5916 28.93 25.4189 29.0037 26.0649 29.151C26.7109 29.2983 27.2209 29.5307 27.5949 29.848C27.9689 30.1653 28.2296 30.579 28.3769 31.089C28.5356 31.599 28.6149 32.2167 28.6149 32.942C28.6149 33.7013 28.5299 34.353 28.3599 34.897C28.2013 35.4297 27.9406 35.866 27.5779 36.206C27.2266 36.546 26.7619 36.7953 26.1839 36.954C25.6173 37.1127 24.9259 37.192 24.1099 37.192C23.8719 37.192 23.6679 37.192 23.4979 37.192C23.3279 37.192 23.1693 37.192 23.0219 37.192C22.8746 37.192 22.7273 37.192 22.5799 37.192C22.4326 37.1807 22.2626 37.175 22.0699 37.175C21.8886 37.1637 21.6733 37.1523 21.4239 37.141V41H19.5199ZM21.4239 30.528V35.611C21.6393 35.6223 21.8376 35.6337 22.0189 35.645C22.2003 35.645 22.3703 35.6507 22.5289 35.662C22.6876 35.662 22.8463 35.662 23.0049 35.662C23.1749 35.662 23.3563 35.662 23.5489 35.662C24.1723 35.662 24.6879 35.6167 25.0959 35.526C25.5039 35.424 25.8213 35.2653 26.0479 35.05C26.2859 34.8347 26.4503 34.5513 26.5409 34.2C26.6429 33.8487 26.6939 33.4237 26.6939 32.925C26.6939 32.4717 26.6486 32.092 26.5579 31.786C26.4673 31.48 26.3143 31.2307 26.0989 31.038C25.8836 30.834 25.5833 30.6867 25.1979 30.596C24.8126 30.494 24.3253 30.443 23.7359 30.443C23.5886 30.443 23.4413 30.4487 23.2939 30.46C23.1579 30.46 23.0049 30.4657 22.8349 30.477C22.6649 30.477 22.4666 30.4827 22.2399 30.494C22.0133 30.5053 21.7413 30.5167 21.4239 30.528ZM31.6749 31.837V32.959C32.0036 32.653 32.3096 32.4093 32.5929 32.228C32.8876 32.0353 33.1823 31.8937 33.4769 31.803C33.7716 31.7123 34.0833 31.667 34.4119 31.667C34.6273 31.667 34.8426 31.684 35.0579 31.718C35.2846 31.752 35.4943 31.7973 35.6869 31.854L35.3809 33.537C35.1769 33.4803 34.9673 33.4407 34.7519 33.418C34.5479 33.384 34.3496 33.367 34.1569 33.367C33.7943 33.367 33.4203 33.4407 33.0349 33.588C32.6609 33.7353 32.2586 33.9847 31.8279 34.336V41H30.0089V31.837H31.6749ZM35.7933 36.41C35.7933 35.6167 35.8613 34.9253 35.9973 34.336C36.1447 33.7467 36.377 33.2593 36.6943 32.874C37.0117 32.4773 37.4367 32.177 37.9693 31.973C38.502 31.769 39.1593 31.667 39.9413 31.667C40.7233 31.667 41.3807 31.769 41.9133 31.973C42.446 32.177 42.871 32.4773 43.1883 32.874C43.5057 33.2593 43.7323 33.7467 43.8683 34.336C44.0157 34.9253 44.0893 35.6167 44.0893 36.41C44.0893 37.2147 44.01 37.9173 43.8513 38.518C43.704 39.1187 43.466 39.6173 43.1373 40.014C42.8087 40.3993 42.378 40.6883 41.8453 40.881C41.324 41.0737 40.6893 41.17 39.9413 41.17C39.1933 41.17 38.553 41.0737 38.0203 40.881C37.499 40.6883 37.074 40.3993 36.7453 40.014C36.4167 39.6173 36.173 39.1187 36.0143 38.518C35.867 37.9173 35.7933 37.2147 35.7933 36.41ZM37.6803 36.41C37.6803 37.2373 37.754 37.8947 37.9013 38.382C38.06 38.8693 38.3037 39.2207 38.6323 39.436C38.9723 39.6513 39.4087 39.759 39.9413 39.759C40.474 39.759 40.9047 39.6513 41.2333 39.436C41.562 39.2207 41.8 38.8693 41.9473 38.382C42.106 37.8947 42.1853 37.2373 42.1853 36.41C42.1853 35.5827 42.1173 34.931 41.9813 34.455C41.8453 33.9677 41.6073 33.622 41.2673 33.418C40.9387 33.2027 40.4967 33.095 39.9413 33.095C39.3747 33.095 38.927 33.2027 38.5983 33.418C38.2697 33.622 38.0317 33.9677 37.8843 34.455C37.7483 34.931 37.6803 35.5827 37.6803 36.41ZM47.4856 31.837V40.609C47.4856 41.731 47.2986 42.6093 46.9246 43.244C46.5619 43.8787 45.9783 44.2867 45.1736 44.468C45.0716 44.4793 44.9583 44.4907 44.8336 44.502C44.7203 44.5133 44.6069 44.519 44.4936 44.519C44.3689 44.5303 44.2499 44.536 44.1366 44.536L44.1876 42.972C44.2783 42.972 44.3576 42.9607 44.4256 42.938C44.4823 42.9267 44.5446 42.9097 44.6126 42.887C44.9639 42.7283 45.2246 42.4563 45.3946 42.071C45.5646 41.697 45.6496 41.1813 45.6496 40.524V31.837H47.4856ZM46.5506 30.273C46.1653 30.273 45.8819 30.1993 45.7006 30.052C45.5306 29.9047 45.4456 29.6553 45.4456 29.304C45.4456 28.964 45.5306 28.7203 45.7006 28.573C45.8706 28.4143 46.1539 28.335 46.5506 28.335C46.9586 28.335 47.2419 28.4143 47.4006 28.573C47.5706 28.7203 47.6556 28.964 47.6556 29.304C47.6556 29.6553 47.5706 29.9047 47.4006 30.052C47.2419 30.1993 46.9586 30.273 46.5506 30.273ZM53.1558 41.17C52.4871 41.17 51.8978 41.085 51.3878 40.915C50.8891 40.7337 50.4584 40.4617 50.0958 40.099C49.7444 39.7363 49.4781 39.2717 49.2968 38.705C49.1154 38.127 49.0248 37.447 49.0248 36.665C49.0248 35.747 49.1324 34.9707 49.3478 34.336C49.5744 33.69 49.8804 33.1743 50.2658 32.789C50.6624 32.3923 51.1214 32.109 51.6428 31.939C52.1754 31.7577 52.7534 31.667 53.3768 31.667C54.6008 31.667 55.5018 31.9843 56.0798 32.619C56.6691 33.2537 56.9638 34.285 56.9638 35.713C56.9638 35.7923 56.9581 35.9057 56.9468 36.053C56.9468 36.189 56.9468 36.325 56.9468 36.461C56.6861 36.4837 56.3518 36.512 55.9438 36.546C55.5471 36.58 55.0881 36.614 54.5668 36.648C54.0454 36.682 53.4788 36.7103 52.8668 36.733C52.2548 36.7557 51.6144 36.7727 50.9458 36.784C50.9344 36.8293 50.9288 36.8803 50.9288 36.937C50.9288 36.9823 50.9288 37.0333 50.9288 37.09C50.9288 37.7133 51.0251 38.2177 51.2178 38.603C51.4104 38.977 51.6938 39.2547 52.0678 39.436C52.4418 39.606 52.9121 39.691 53.4788 39.691C53.8188 39.691 54.1701 39.674 54.5328 39.64C54.9068 39.5947 55.2694 39.5437 55.6208 39.487C55.9721 39.419 56.3064 39.3453 56.6238 39.266L56.8618 40.643C56.5218 40.745 56.1534 40.8413 55.7568 40.932C55.3714 41.0113 54.9634 41.068 54.5328 41.102C54.1021 41.1473 53.6431 41.17 53.1558 41.17ZM50.9628 35.543C51.4388 35.543 51.8921 35.5373 52.3228 35.526C52.7648 35.5033 53.1728 35.4807 53.5468 35.458C53.9208 35.4353 54.2381 35.4183 54.4988 35.407C54.7708 35.3843 54.9748 35.3673 55.1108 35.356C55.0994 34.7893 55.0258 34.336 54.8898 33.996C54.7538 33.656 54.5498 33.4123 54.2778 33.265C54.0058 33.1063 53.6601 33.027 53.2408 33.027C52.9801 33.027 52.7251 33.0667 52.4758 33.146C52.2264 33.214 51.9941 33.3443 51.7788 33.537C51.5748 33.7183 51.3991 33.9733 51.2518 34.302C51.1044 34.6193 51.0081 35.033 50.9628 35.543ZM58.0726 36.563C58.0726 35.4637 58.2426 34.557 58.5826 33.843C58.9226 33.1177 59.4213 32.5737 60.0786 32.211C60.7473 31.8483 61.5576 31.667 62.5096 31.667C62.827 31.667 63.15 31.684 63.4786 31.718C63.8186 31.7407 64.1473 31.7803 64.4646 31.837C64.782 31.8823 65.071 31.9447 65.3316 32.024L65.0596 33.554C64.8103 33.4973 64.5496 33.452 64.2776 33.418C64.0056 33.3727 63.7336 33.3387 63.4616 33.316C63.201 33.2933 62.946 33.282 62.6966 33.282C62.1073 33.282 61.6086 33.401 61.2006 33.639C60.804 33.877 60.498 34.234 60.2826 34.71C60.0786 35.186 59.9766 35.798 59.9766 36.546C59.9766 37.226 60.0843 37.7927 60.2996 38.246C60.515 38.688 60.8266 39.0223 61.2346 39.249C61.6426 39.4643 62.1356 39.572 62.7136 39.572C62.9743 39.572 63.2406 39.5607 63.5126 39.538C63.796 39.5153 64.0793 39.4813 64.3626 39.436C64.6573 39.3907 64.9406 39.3397 65.2126 39.283L65.4846 40.762C65.054 40.8753 64.5496 40.9717 63.9716 41.051C63.405 41.1303 62.8553 41.17 62.3226 41.17C60.9173 41.17 59.8576 40.796 59.1436 40.048C58.4296 39.2887 58.0726 38.127 58.0726 36.563ZM70.0608 41.17C69.4828 41.17 69.0011 41.0623 68.6158 40.847C68.2305 40.6317 67.9415 40.303 67.7488 39.861C67.5675 39.4077 67.4768 38.841 67.4768 38.161V33.214H65.9808V31.99L67.4768 31.837L67.7148 29.746H69.3128V31.837H72.1348V33.214H69.3128V38.025C69.3128 38.5803 69.4205 38.9827 69.6358 39.232C69.8511 39.4813 70.1968 39.606 70.6728 39.606C70.9108 39.606 71.1545 39.5833 71.4038 39.538C71.6645 39.4813 71.9308 39.419 72.2028 39.351L72.4578 40.762C72.0272 40.9093 71.6078 41.0113 71.1998 41.068C70.7918 41.136 70.4122 41.17 70.0608 41.17ZM24.8 61.119L18.476 54.676C18.204 54.37 17.983 54.0697 17.813 53.775C17.643 53.4803 17.5183 53.18 17.439 52.874C17.371 52.568 17.337 52.2563 17.337 51.939C17.337 51.327 17.4616 50.8 17.711 50.358C17.9716 49.9047 18.3626 49.5533 18.884 49.304C19.4166 49.0547 20.0966 48.93 20.924 48.93C22.0346 48.93 22.8676 49.151 23.423 49.593C23.9896 50.035 24.273 50.6867 24.273 51.548C24.273 51.9447 24.2106 52.3187 24.086 52.67C23.9726 53.01 23.7856 53.3217 23.525 53.605C23.2756 53.8883 22.9356 54.132 22.505 54.336L21.757 53.486C22.0516 53.282 22.267 53.0553 22.403 52.806C22.5503 52.5453 22.624 52.228 22.624 51.854C22.624 51.5367 22.5616 51.276 22.437 51.072C22.3236 50.8567 22.1423 50.6923 21.893 50.579C21.655 50.4657 21.349 50.409 20.975 50.409C20.3856 50.409 19.9436 50.5393 19.649 50.8C19.3656 51.0607 19.224 51.4347 19.224 51.922C19.224 52.126 19.2523 52.33 19.309 52.534C19.3656 52.738 19.462 52.9533 19.598 53.18C19.7453 53.3953 19.938 53.6333 20.176 53.894L26.942 61L24.8 61.119ZM20.278 61.17C18.9633 61.17 17.932 60.8583 17.184 60.235C16.436 59.6003 16.062 58.7673 16.062 57.736C16.062 56.9313 16.2546 56.24 16.64 55.662C17.0366 55.084 17.6373 54.5967 18.442 54.2L19.309 55.237C18.8216 55.5203 18.459 55.8433 18.221 56.206C17.983 56.5687 17.864 57.0163 17.864 57.549C17.864 57.991 17.966 58.382 18.17 58.722C18.3853 59.0507 18.6913 59.3057 19.088 59.487C19.4846 59.6683 19.955 59.759 20.499 59.759C21.0656 59.759 21.5416 59.6627 21.927 59.47C22.3236 59.2773 22.6466 59.011 22.896 58.671L23.814 59.776C23.508 60.082 23.168 60.3427 22.794 60.558C22.4313 60.762 22.0403 60.915 21.621 61.017C21.2016 61.119 20.754 61.17 20.278 61.17ZM24.851 59.079L23.746 57.77C23.95 57.4867 24.103 57.1637 24.205 56.801C24.3183 56.427 24.3806 56.0133 24.392 55.56C24.4033 55.424 24.4033 55.2937 24.392 55.169C24.3806 55.033 24.3636 54.897 24.341 54.761L25.854 54.727C25.8766 54.8743 25.8936 55.0217 25.905 55.169C25.9276 55.3163 25.939 55.4863 25.939 55.679C25.939 56.325 25.8426 56.937 25.65 57.515C25.4686 58.0817 25.2023 58.603 24.851 59.079ZM32.2011 55.254C32.2011 53.7467 32.4051 52.5283 32.8131 51.599C33.2324 50.6697 33.8444 49.9953 34.6491 49.576C35.4651 49.1453 36.4738 48.93 37.6751 48.93C38.0264 48.93 38.3494 48.9413 38.6441 48.964C38.9388 48.9753 39.2221 49.0037 39.4941 49.049C39.7661 49.083 40.0268 49.1283 40.2761 49.185C40.5368 49.2417 40.7974 49.3097 41.0581 49.389L40.6841 50.919C40.3441 50.8283 40.0211 50.7603 39.7151 50.715C39.4091 50.6583 39.1031 50.6187 38.7971 50.596C38.4911 50.5733 38.1738 50.562 37.8451 50.562C37.2218 50.562 36.6778 50.6413 36.2131 50.8C35.7484 50.9587 35.3631 51.2193 35.0571 51.582C34.7511 51.9447 34.5188 52.4263 34.3601 53.027C34.2128 53.6277 34.1391 54.3643 34.1391 55.237C34.1391 56.0417 34.2128 56.7217 34.3601 57.277C34.5074 57.821 34.7284 58.263 35.0231 58.603C35.3291 58.9317 35.7031 59.1753 36.1451 59.334C36.5984 59.4813 37.1254 59.555 37.7261 59.555C38.2588 59.555 38.8141 59.521 39.3921 59.453C39.9701 59.3737 40.4971 59.266 40.9731 59.13L41.3131 60.643C41.0524 60.7223 40.7748 60.796 40.4801 60.864C40.1968 60.932 39.8908 60.9887 39.5621 61.034C39.2448 61.0793 38.9104 61.1133 38.5591 61.136C38.2078 61.1587 37.8338 61.17 37.4371 61.17C36.5871 61.17 35.8334 61.068 35.1761 60.864C34.5301 60.6487 33.9861 60.3087 33.5441 59.844C33.1021 59.3793 32.7678 58.773 32.5411 58.025C32.3144 57.2657 32.2011 56.342 32.2011 55.254ZM44.57 48.42V58.263C44.57 58.6257 44.6097 58.9033 44.689 59.096C44.7684 59.2773 44.876 59.402 45.012 59.47C45.148 59.538 45.301 59.572 45.471 59.572C45.5957 59.572 45.726 59.5607 45.862 59.538C45.998 59.5153 46.1454 59.4757 46.304 59.419L46.491 60.847C46.287 60.9377 46.0547 61.0113 45.794 61.068C45.5334 61.136 45.2557 61.17 44.961 61.17C44.485 61.17 44.077 61.0907 43.737 60.932C43.4084 60.762 43.159 60.4787 42.989 60.082C42.819 59.674 42.734 59.1187 42.734 58.416V48.42H44.57ZM48.3835 50.273C47.9868 50.273 47.7035 50.1993 47.5335 50.052C47.3635 49.9047 47.2785 49.6553 47.2785 49.304C47.2785 48.964 47.3635 48.7203 47.5335 48.573C47.7035 48.4143 47.9868 48.335 48.3835 48.335C48.7802 48.335 49.0635 48.4143 49.2335 48.573C49.4035 48.7203 49.4885 48.964 49.4885 49.304C49.4885 49.6553 49.4035 49.9047 49.2335 50.052C49.0635 50.1993 48.7802 50.273 48.3835 50.273ZM47.4655 61V51.837H49.3015V61H47.4655ZM54.9736 61.17C54.305 61.17 53.7156 61.085 53.2056 60.915C52.707 60.7337 52.2763 60.4617 51.9136 60.099C51.5623 59.7363 51.296 59.2717 51.1146 58.705C50.9333 58.127 50.8426 57.447 50.8426 56.665C50.8426 55.747 50.9503 54.9707 51.1656 54.336C51.3923 53.69 51.6983 53.1743 52.0836 52.789C52.4803 52.3923 52.9393 52.109 53.4606 51.939C53.9933 51.7577 54.5713 51.667 55.1946 51.667C56.4186 51.667 57.3196 51.9843 57.8976 52.619C58.487 53.2537 58.7816 54.285 58.7816 55.713C58.7816 55.7923 58.776 55.9057 58.7646 56.053C58.7646 56.189 58.7646 56.325 58.7646 56.461C58.504 56.4837 58.1696 56.512 57.7616 56.546C57.365 56.58 56.906 56.614 56.3846 56.648C55.8633 56.682 55.2966 56.7103 54.6846 56.733C54.0726 56.7557 53.4323 56.7727 52.7636 56.784C52.7523 56.8293 52.7466 56.8803 52.7466 56.937C52.7466 56.9823 52.7466 57.0333 52.7466 57.09C52.7466 57.7133 52.843 58.2177 53.0356 58.603C53.2283 58.977 53.5116 59.2547 53.8856 59.436C54.2596 59.606 54.73 59.691 55.2966 59.691C55.6366 59.691 55.988 59.674 56.3506 59.64C56.7246 59.5947 57.0873 59.5437 57.4386 59.487C57.79 59.419 58.1243 59.3453 58.4416 59.266L58.6796 60.643C58.3396 60.745 57.9713 60.8413 57.5746 60.932C57.1893 61.0113 56.7813 61.068 56.3506 61.102C55.92 61.1473 55.461 61.17 54.9736 61.17ZM52.7806 55.543C53.2566 55.543 53.71 55.5373 54.1406 55.526C54.5826 55.5033 54.9906 55.4807 55.3646 55.458C55.7386 55.4353 56.056 55.4183 56.3166 55.407C56.5886 55.3843 56.7926 55.3673 56.9286 55.356C56.9173 54.7893 56.8436 54.336 56.7076 53.996C56.5716 53.656 56.3676 53.4123 56.0956 53.265C55.8236 53.1063 55.478 53.027 55.0586 53.027C54.798 53.027 54.543 53.0667 54.2936 53.146C54.0443 53.214 53.812 53.3443 53.5966 53.537C53.3926 53.7183 53.217 53.9733 53.0696 54.302C52.9223 54.6193 52.826 55.033 52.7806 55.543ZM60.3317 61V51.837H61.9977V52.636C62.3717 52.432 62.7287 52.262 63.0687 52.126C63.4087 51.9787 63.7544 51.8653 64.1057 51.786C64.457 51.7067 64.8254 51.667 65.2107 51.667C65.7774 51.667 66.2477 51.769 66.6217 51.973C67.007 52.177 67.296 52.466 67.4887 52.84C67.6927 53.214 67.7947 53.673 67.7947 54.217V61H65.9417V54.778C65.9417 54.268 65.817 53.8827 65.5677 53.622C65.3184 53.3613 64.9444 53.231 64.4457 53.231C64.185 53.231 63.93 53.2593 63.6807 53.316C63.4314 53.3727 63.182 53.452 62.9327 53.554C62.6834 53.6447 62.4284 53.758 62.1677 53.894V61H60.3317ZM72.9578 61.17C72.3798 61.17 71.8981 61.0623 71.5128 60.847C71.1275 60.6317 70.8385 60.303 70.6458 59.861C70.4645 59.4077 70.3738 58.841 70.3738 58.161V53.214H68.8778V51.99L70.3738 51.837L70.6118 49.746H72.2098V51.837H75.0318V53.214H72.2098V58.025C72.2098 58.5803 72.3175 58.9827 72.5328 59.232C72.7481 59.4813 73.0938 59.606 73.5698 59.606C73.8078 59.606 74.0515 59.5833 74.3008 59.538C74.5615 59.4813 74.8278 59.419 75.0998 59.351L75.3548 60.762C74.9241 60.9093 74.5048 61.0113 74.0968 61.068C73.6888 61.136 73.3091 61.17 72.9578 61.17Z" fill="#0F100F"/>
</svg>
