<svg width="91" height="97" viewBox="0 0 91 97" fill="none" xmlns="http://www.w3.org/2000/svg">
<circle cx="45.118" cy="51.2033" r="44.618" fill="white" stroke="black"/>
<circle cx="45.118" cy="45.118" r="44.618" fill="#00D889" stroke="black"/>
<path d="M18.2665 41V29.066H20.0685L25.7975 38.025V29.1H27.4975V41.034H25.6955L19.9835 32.16V41H18.2665ZM33.2588 41.17C32.5901 41.17 32.0008 41.085 31.4908 40.915C30.9921 40.7337 30.5615 40.4617 30.1988 40.099C29.8475 39.7363 29.5811 39.2717 29.3998 38.705C29.2185 38.127 29.1278 37.447 29.1278 36.665C29.1278 35.747 29.2355 34.9707 29.4508 34.336C29.6775 33.69 29.9835 33.1743 30.3688 32.789C30.7655 32.3923 31.2245 32.109 31.7458 31.939C32.2785 31.7577 32.8565 31.667 33.4798 31.667C34.7038 31.667 35.6048 31.9843 36.1828 32.619C36.7721 33.2537 37.0668 34.285 37.0668 35.713C37.0668 35.7923 37.0611 35.9057 37.0498 36.053C37.0498 36.189 37.0498 36.325 37.0498 36.461C36.7891 36.4837 36.4548 36.512 36.0468 36.546C35.6501 36.58 35.1911 36.614 34.6698 36.648C34.1485 36.682 33.5818 36.7103 32.9698 36.733C32.3578 36.7557 31.7175 36.7727 31.0488 36.784C31.0375 36.8293 31.0318 36.8803 31.0318 36.937C31.0318 36.9823 31.0318 37.0333 31.0318 37.09C31.0318 37.7133 31.1281 38.2177 31.3208 38.603C31.5135 38.977 31.7968 39.2547 32.1708 39.436C32.5448 39.606 33.0151 39.691 33.5818 39.691C33.9218 39.691 34.2731 39.674 34.6358 39.64C35.0098 39.5947 35.3725 39.5437 35.7238 39.487C36.0751 39.419 36.4095 39.3453 36.7268 39.266L36.9648 40.643C36.6248 40.745 36.2565 40.8413 35.8598 40.932C35.4745 41.0113 35.0665 41.068 34.6358 41.102C34.2051 41.1473 33.7461 41.17 33.2588 41.17ZM31.0658 35.543C31.5418 35.543 31.9951 35.5373 32.4258 35.526C32.8678 35.5033 33.2758 35.4807 33.6498 35.458C34.0238 35.4353 34.3411 35.4183 34.6018 35.407C34.8738 35.3843 35.0778 35.3673 35.2138 35.356C35.2025 34.7893 35.1288 34.336 34.9928 33.996C34.8568 33.656 34.6528 33.4123 34.3808 33.265C34.1088 33.1063 33.7631 33.027 33.3438 33.027C33.0831 33.027 32.8281 33.0667 32.5788 33.146C32.3295 33.214 32.0971 33.3443 31.8818 33.537C31.6778 33.7183 31.5021 33.9733 31.3548 34.302C31.2075 34.6193 31.1111 35.033 31.0658 35.543ZM39.9804 41L37.6514 31.888L39.4874 31.82L41.1194 39.215L42.8874 31.837H44.8424L46.6274 39.215L48.2594 31.82L50.0784 31.888L47.6814 41H45.6244L43.8394 34.013L42.0884 41H39.9804ZM50.5058 40.643L50.7438 39.266C50.9365 39.334 51.1575 39.402 51.4068 39.47C51.6562 39.5267 51.9112 39.5777 52.1718 39.623C52.4438 39.6683 52.7158 39.7023 52.9878 39.725C53.2598 39.7477 53.5205 39.759 53.7698 39.759C54.3932 39.759 54.8522 39.657 55.1468 39.453C55.4528 39.249 55.6058 38.9543 55.6058 38.569C55.6058 38.3537 55.5548 38.1723 55.4528 38.025C55.3622 37.8777 55.2148 37.7473 55.0108 37.634C54.8068 37.5093 54.5575 37.4017 54.2628 37.311C53.9682 37.209 53.6225 37.1127 53.2258 37.022C52.8292 36.92 52.4778 36.7953 52.1718 36.648C51.8658 36.5007 51.5995 36.3193 51.3728 36.104C51.1575 35.8887 50.9932 35.645 50.8798 35.373C50.7778 35.0897 50.7268 34.7667 50.7268 34.404C50.7268 33.5313 51.0215 32.857 51.6108 32.381C52.2115 31.905 53.0898 31.667 54.2458 31.667C54.5972 31.667 54.9315 31.6897 55.2488 31.735C55.5662 31.769 55.8665 31.82 56.1498 31.888C56.4445 31.9447 56.7108 32.0183 56.9488 32.109L56.6938 33.503C56.4558 33.435 56.2122 33.3727 55.9628 33.316C55.7248 33.2593 55.4642 33.214 55.1808 33.18C54.8975 33.146 54.5858 33.129 54.2458 33.129C53.6678 33.129 53.2315 33.2253 52.9368 33.418C52.6535 33.6107 52.5118 33.8883 52.5118 34.251C52.5118 34.4663 52.5572 34.642 52.6478 34.778C52.7498 34.914 52.8915 35.033 53.0728 35.135C53.2655 35.2257 53.4922 35.3163 53.7528 35.407C54.0135 35.4863 54.3082 35.5657 54.6368 35.645C55.0562 35.747 55.4358 35.8717 55.7758 36.019C56.1272 36.155 56.4218 36.325 56.6598 36.529C56.9092 36.733 57.1018 36.988 57.2378 37.294C57.3738 37.5887 57.4418 37.957 57.4418 38.399C57.4418 38.7843 57.3795 39.1357 57.2548 39.453C57.1302 39.759 56.9545 40.0197 56.7278 40.235C56.5125 40.4503 56.2518 40.626 55.9458 40.762C55.6398 40.898 55.2998 41 54.9258 41.068C54.5518 41.136 54.1552 41.17 53.7358 41.17C53.3392 41.17 52.9538 41.1473 52.5798 41.102C52.2058 41.068 51.8432 41.0113 51.4918 40.932C51.1405 40.8527 50.8118 40.7563 50.5058 40.643ZM71.6662 41.119L65.3422 34.676C65.0702 34.37 64.8492 34.0697 64.6792 33.775C64.5092 33.4803 64.3845 33.18 64.3052 32.874C64.2372 32.568 64.2032 32.2563 64.2032 31.939C64.2032 31.327 64.3279 30.8 64.5772 30.358C64.8379 29.9047 65.2289 29.5533 65.7502 29.304C66.2829 29.0547 66.9629 28.93 67.7902 28.93C68.9009 28.93 69.7339 29.151 70.2892 29.593C70.8559 30.035 71.1392 30.6867 71.1392 31.548C71.1392 31.9447 71.0769 32.3187 70.9522 32.67C70.8389 33.01 70.6519 33.3217 70.3912 33.605C70.1419 33.8883 69.8019 34.132 69.3712 34.336L68.6232 33.486C68.9179 33.282 69.1332 33.0553 69.2692 32.806C69.4165 32.5453 69.4902 32.228 69.4902 31.854C69.4902 31.5367 69.4279 31.276 69.3032 31.072C69.1899 30.8567 69.0085 30.6923 68.7592 30.579C68.5212 30.4657 68.2152 30.409 67.8412 30.409C67.2519 30.409 66.8099 30.5393 66.5152 30.8C66.2319 31.0607 66.0902 31.4347 66.0902 31.922C66.0902 32.126 66.1185 32.33 66.1752 32.534C66.2319 32.738 66.3282 32.9533 66.4642 33.18C66.6115 33.3953 66.8042 33.6333 67.0422 33.894L73.8082 41L71.6662 41.119ZM67.1442 41.17C65.8295 41.17 64.7982 40.8583 64.0502 40.235C63.3022 39.6003 62.9282 38.7673 62.9282 37.736C62.9282 36.9313 63.1209 36.24 63.5062 35.662C63.9029 35.084 64.5035 34.5967 65.3082 34.2L66.1752 35.237C65.6879 35.5203 65.3252 35.8433 65.0872 36.206C64.8492 36.5687 64.7302 37.0163 64.7302 37.549C64.7302 37.991 64.8322 38.382 65.0362 38.722C65.2515 39.0507 65.5575 39.3057 65.9542 39.487C66.3509 39.6683 66.8212 39.759 67.3652 39.759C67.9319 39.759 68.4079 39.6627 68.7932 39.47C69.1899 39.2773 69.5129 39.011 69.7622 38.671L70.6802 39.776C70.3742 40.082 70.0342 40.3427 69.6602 40.558C69.2975 40.762 68.9065 40.915 68.4872 41.017C68.0679 41.119 67.6202 41.17 67.1442 41.17ZM71.7172 39.079L70.6122 37.77C70.8162 37.4867 70.9692 37.1637 71.0712 36.801C71.1845 36.427 71.2469 36.0133 71.2582 35.56C71.2695 35.424 71.2695 35.2937 71.2582 35.169C71.2469 35.033 71.2299 34.897 71.2072 34.761L72.7202 34.727C72.7429 34.8743 72.7599 35.0217 72.7712 35.169C72.7939 35.3163 72.8052 35.4863 72.8052 35.679C72.8052 36.325 72.7089 36.937 72.5162 37.515C72.3349 38.0817 72.0685 38.603 71.7172 39.079ZM19.3911 57.328V49.1H21.2781V57.345C21.2781 57.7077 21.3234 58.0193 21.4141 58.28C21.5161 58.5407 21.6577 58.7617 21.8391 58.943C22.0317 59.113 22.2471 59.249 22.4851 59.351C22.7344 59.4417 22.9951 59.5097 23.2671 59.555C23.5391 59.589 23.8224 59.606 24.1171 59.606C24.4117 59.606 24.6951 59.589 24.9671 59.555C25.2391 59.5097 25.4941 59.436 25.7321 59.334C25.9701 59.232 26.1797 59.096 26.3611 58.926C26.5424 58.7447 26.6784 58.5293 26.7691 58.28C26.8711 58.0193 26.9221 57.7077 26.9221 57.345V49.1H28.8091V57.328C28.8091 57.9173 28.7354 58.4273 28.5881 58.858C28.4407 59.2887 28.2254 59.6513 27.9421 59.946C27.6587 60.2407 27.3187 60.4787 26.9221 60.66C26.5367 60.8413 26.1061 60.9717 25.6301 61.051C25.1541 61.1303 24.6441 61.17 24.1001 61.17C23.5674 61.17 23.0631 61.1303 22.5871 61.051C22.1111 60.9717 21.6747 60.8413 21.2781 60.66C20.8927 60.4787 20.5584 60.2407 20.2751 59.946C19.9917 59.6513 19.7707 59.2887 19.6121 58.858C19.4647 58.4273 19.3911 57.9173 19.3911 57.328ZM30.6315 64.57V51.786H32.2975L32.3485 52.67C32.8698 52.33 33.3742 52.0807 33.8615 51.922C34.3488 51.752 34.8418 51.667 35.3405 51.667C36.3378 51.667 37.1028 52.0637 37.6355 52.857C38.1682 53.639 38.4345 54.761 38.4345 56.223C38.4345 57.345 38.2815 58.2743 37.9755 59.011C37.6695 59.7477 37.2048 60.2917 36.5815 60.643C35.9582 60.9943 35.1705 61.17 34.2185 61.17C33.9578 61.17 33.6802 61.153 33.3855 61.119C33.1022 61.085 32.7962 61.0397 32.4675 60.983V64.57H30.6315ZM34.0825 59.81C34.6492 59.81 35.1082 59.7023 35.4595 59.487C35.8222 59.2603 36.0885 58.8977 36.2585 58.399C36.4398 57.889 36.5305 57.2203 36.5305 56.393C36.5305 55.6677 36.4568 55.0727 36.3095 54.608C36.1622 54.132 35.9468 53.7807 35.6635 53.554C35.3915 53.316 35.0515 53.197 34.6435 53.197C34.4168 53.197 34.1845 53.2253 33.9465 53.282C33.7198 53.3273 33.4875 53.4067 33.2495 53.52C33.0115 53.622 32.7508 53.7637 32.4675 53.945V59.589C32.7848 59.657 33.0738 59.7137 33.3345 59.759C33.5952 59.793 33.8445 59.81 34.0825 59.81ZM45.7918 61.017L45.5708 60.235C45.0721 60.5523 44.5905 60.7903 44.1258 60.949C43.6611 61.0963 43.1795 61.17 42.6808 61.17C41.6948 61.17 40.9298 60.779 40.3858 59.997C39.8531 59.215 39.5868 58.0873 39.5868 56.614C39.5868 55.4807 39.7341 54.5513 40.0288 53.826C40.3348 53.1007 40.7995 52.5623 41.4228 52.211C42.0575 51.8483 42.8451 51.667 43.7858 51.667C44.0578 51.667 44.3468 51.684 44.6528 51.718C44.9588 51.7407 45.2591 51.7803 45.5538 51.837V48.42H47.4068V61.017H45.7918ZM45.5538 58.892V53.265C45.2365 53.1857 44.9418 53.129 44.6698 53.095C44.4091 53.061 44.1655 53.044 43.9388 53.044C43.3835 53.044 42.9245 53.1573 42.5618 53.384C42.1991 53.5993 41.9328 53.9563 41.7628 54.455C41.5928 54.9537 41.5078 55.6223 41.5078 56.461C41.5078 57.1637 41.5815 57.753 41.7288 58.229C41.8761 58.6937 42.0858 59.045 42.3578 59.283C42.6411 59.5097 42.9811 59.623 43.3778 59.623C43.6045 59.623 43.8311 59.6003 44.0578 59.555C44.2958 59.4983 44.5338 59.419 44.7718 59.317C45.0098 59.2037 45.2705 59.062 45.5538 58.892ZM48.7149 58.705C48.7149 58.1497 48.8225 57.6963 49.0379 57.345C49.2645 56.9823 49.6045 56.699 50.0579 56.495C50.5112 56.2797 51.0779 56.1153 51.7579 56.002C52.4379 55.8773 53.2312 55.781 54.1379 55.713V54.659C54.1379 54.1943 53.9735 53.843 53.6449 53.605C53.3162 53.367 52.8402 53.248 52.2169 53.248C51.9902 53.248 51.7295 53.2593 51.4349 53.282C51.1515 53.3047 50.8512 53.3443 50.5339 53.401C50.2165 53.4577 49.8935 53.537 49.5649 53.639L49.2589 52.16C49.7462 52.0013 50.2619 51.8823 50.8059 51.803C51.3499 51.7123 51.8599 51.667 52.3359 51.667C53.1632 51.667 53.8432 51.7803 54.3759 52.007C54.9199 52.2223 55.3222 52.551 55.5829 52.993C55.8549 53.435 55.9909 53.9847 55.9909 54.642V58.688C55.9909 59.028 56.0419 59.2603 56.1439 59.385C56.2459 59.4983 56.3762 59.555 56.5349 59.555C56.5915 59.555 56.6595 59.5493 56.7389 59.538C56.8182 59.5267 56.8975 59.504 56.9769 59.47L57.1469 60.83C56.9655 60.932 56.7672 61.0113 56.5519 61.068C56.3365 61.136 56.1042 61.17 55.8549 61.17C55.4242 61.17 55.0785 61.0737 54.8179 60.881C54.5685 60.677 54.3985 60.371 54.3079 59.963C54.0245 60.1783 53.7185 60.3823 53.3899 60.575C53.0725 60.7563 52.7212 60.898 52.3359 61C51.9619 61.1133 51.5482 61.17 51.0949 61.17C50.7322 61.17 50.4035 61.1133 50.1089 61C49.8255 60.898 49.5762 60.745 49.3609 60.541C49.1569 60.3257 48.9982 60.065 48.8849 59.759C48.7715 59.453 48.7149 59.1017 48.7149 58.705ZM50.5849 58.569C50.5849 59.011 50.6925 59.3397 50.9079 59.555C51.1232 59.7703 51.4122 59.878 51.7749 59.878C52.0469 59.878 52.3245 59.8383 52.6079 59.759C52.8912 59.6683 53.1632 59.5493 53.4239 59.402C53.6959 59.2433 53.9339 59.0563 54.1379 58.841V56.767C53.5825 56.8123 53.0895 56.869 52.6589 56.937C52.2282 57.005 51.8542 57.107 51.5369 57.243C51.2309 57.3677 50.9929 57.5377 50.8229 57.753C50.6642 57.9683 50.5849 58.2403 50.5849 58.569ZM61.1541 61.17C60.5761 61.17 60.0944 61.0623 59.7091 60.847C59.3237 60.6317 59.0347 60.303 58.8421 59.861C58.6607 59.4077 58.5701 58.841 58.5701 58.161V53.214H57.0741V51.99L58.5701 51.837L58.8081 49.746H60.4061V51.837H63.2281V53.214H60.4061V58.025C60.4061 58.5803 60.5137 58.9827 60.7291 59.232C60.9444 59.4813 61.2901 59.606 61.7661 59.606C62.0041 59.606 62.2477 59.5833 62.4971 59.538C62.7577 59.4813 63.0241 59.419 63.2961 59.351L63.5511 60.762C63.1204 60.9093 62.7011 61.0113 62.2931 61.068C61.8851 61.136 61.5054 61.17 61.1541 61.17ZM68.1719 61.17C67.5032 61.17 66.9139 61.085 66.4039 60.915C65.9052 60.7337 65.4746 60.4617 65.1119 60.099C64.7606 59.7363 64.4942 59.2717 64.3129 58.705C64.1316 58.127 64.0409 57.447 64.0409 56.665C64.0409 55.747 64.1486 54.9707 64.3639 54.336C64.5906 53.69 64.8966 53.1743 65.2819 52.789C65.6786 52.3923 66.1376 52.109 66.6589 51.939C67.1916 51.7577 67.7696 51.667 68.3929 51.667C69.6169 51.667 70.5179 51.9843 71.0959 52.619C71.6852 53.2537 71.9799 54.285 71.9799 55.713C71.9799 55.7923 71.9742 55.9057 71.9629 56.053C71.9629 56.189 71.9629 56.325 71.9629 56.461C71.7022 56.4837 71.3679 56.512 70.9599 56.546C70.5632 56.58 70.1042 56.614 69.5829 56.648C69.0616 56.682 68.4949 56.7103 67.8829 56.733C67.2709 56.7557 66.6306 56.7727 65.9619 56.784C65.9506 56.8293 65.9449 56.8803 65.9449 56.937C65.9449 56.9823 65.9449 57.0333 65.9449 57.09C65.9449 57.7133 66.0412 58.2177 66.2339 58.603C66.4266 58.977 66.7099 59.2547 67.0839 59.436C67.4579 59.606 67.9282 59.691 68.4949 59.691C68.8349 59.691 69.1862 59.674 69.5489 59.64C69.9229 59.5947 70.2856 59.5437 70.6369 59.487C70.9882 59.419 71.3226 59.3453 71.6399 59.266L71.8779 60.643C71.5379 60.745 71.1696 60.8413 70.7729 60.932C70.3876 61.0113 69.9796 61.068 69.5489 61.102C69.1182 61.1473 68.6592 61.17 68.1719 61.17ZM65.9789 55.543C66.4549 55.543 66.9082 55.5373 67.3389 55.526C67.7809 55.5033 68.1889 55.4807 68.5629 55.458C68.9369 55.4353 69.2542 55.4183 69.5149 55.407C69.7869 55.3843 69.9909 55.3673 70.1269 55.356C70.1156 54.7893 70.0419 54.336 69.9059 53.996C69.7699 53.656 69.5659 53.4123 69.2939 53.265C69.0219 53.1063 68.6762 53.027 68.2569 53.027C67.9962 53.027 67.7412 53.0667 67.4919 53.146C67.2426 53.214 67.0102 53.3443 66.7949 53.537C66.5909 53.7183 66.4152 53.9733 66.2679 54.302C66.1206 54.6193 66.0242 55.033 65.9789 55.543Z" fill="#0F100F"/>
</svg>
