<svg width="91" height="97" viewBox="0 0 91 97" fill="none" xmlns="http://www.w3.org/2000/svg">
<circle cx="45.118" cy="51.2033" r="44.618" fill="white" stroke="black"/>
<circle cx="45.118" cy="45.118" r="44.618" fill="#00D889" stroke="black"/>
<path d="M37.3786 39.64C37.7526 39.64 38.1039 39.6003 38.4326 39.521C38.7726 39.4303 39.0786 39.283 39.3506 39.079C39.6226 38.875 39.8606 38.603 40.0646 38.263C40.2686 37.9117 40.4216 37.4697 40.5236 36.937C40.6369 36.4043 40.6936 35.7753 40.6936 35.05C40.6936 34.3133 40.6369 33.6787 40.5236 33.146C40.4102 32.6133 40.2516 32.1713 40.0476 31.82C39.8549 31.4687 39.6169 31.1967 39.3336 31.004C39.0616 30.8 38.7556 30.6583 38.4156 30.579C38.0869 30.4883 37.7412 30.443 37.3786 30.443C37.0272 30.443 36.6872 30.4883 36.3586 30.579C36.0412 30.6583 35.7409 30.8 35.4576 31.004C35.1856 31.1967 34.9476 31.4743 34.7436 31.837C34.5396 32.1883 34.3809 32.6303 34.2676 33.163C34.1656 33.6843 34.1146 34.319 34.1146 35.067C34.1146 35.7923 34.1656 36.4157 34.2676 36.937C34.3809 37.4583 34.5396 37.8947 34.7436 38.246C34.9589 38.5973 35.2026 38.875 35.4746 39.079C35.7466 39.283 36.0412 39.4303 36.3586 39.521C36.6872 39.6003 37.0272 39.64 37.3786 39.64ZM37.3956 41.17C36.7836 41.17 36.2112 41.1077 35.6786 40.983C35.1572 40.8583 34.6756 40.6543 34.2336 40.371C33.8029 40.0763 33.4346 39.6967 33.1286 39.232C32.8226 38.756 32.5846 38.178 32.4146 37.498C32.2559 36.8067 32.1766 35.9907 32.1766 35.05C32.1766 34.1093 32.2559 33.299 32.4146 32.619C32.5732 31.9277 32.8056 31.3497 33.1116 30.885C33.4176 30.409 33.7859 30.0293 34.2166 29.746C34.6472 29.4513 35.1232 29.2417 35.6446 29.117C36.1772 28.9923 36.7609 28.93 37.3956 28.93C38.0189 28.93 38.5969 28.9923 39.1296 29.117C39.6736 29.2417 40.1552 29.4457 40.5746 29.729C41.0052 30.001 41.3736 30.375 41.6796 30.851C41.9856 31.3157 42.2236 31.8937 42.3936 32.585C42.5636 33.265 42.6486 34.0753 42.6486 35.016C42.6486 35.968 42.5636 36.7953 42.3936 37.498C42.2349 38.1893 41.9969 38.773 41.6796 39.249C41.3736 39.7137 41.0052 40.0877 40.5746 40.371C40.1552 40.6543 39.6736 40.8583 39.1296 40.983C38.5969 41.1077 38.0189 41.17 37.3956 41.17ZM46.8197 41.17C46.2984 41.17 45.845 41.0793 45.4597 40.898C45.0744 40.7053 44.774 40.4163 44.5587 40.031C44.3547 39.6457 44.2527 39.164 44.2527 38.586V31.837H46.0887V38.195C46.0887 38.6483 46.2134 38.9997 46.4627 39.249C46.712 39.4983 47.0747 39.623 47.5507 39.623C47.8 39.623 48.0437 39.5947 48.2817 39.538C48.5197 39.4813 48.752 39.4077 48.9787 39.317C49.2167 39.215 49.4604 39.096 49.7097 38.96V31.837H51.5457V38.739C51.5457 38.9543 51.5684 39.1243 51.6137 39.249C51.6704 39.3737 51.744 39.4643 51.8347 39.521C51.9254 39.5663 52.0217 39.589 52.1237 39.589C52.271 39.589 52.4127 39.5607 52.5487 39.504L52.7357 40.83C52.6224 40.898 52.492 40.9547 52.3447 41C52.1974 41.0567 52.0444 41.0963 51.8857 41.119C51.727 41.153 51.5627 41.17 51.3927 41.17C51.0414 41.17 50.741 41.0907 50.4917 40.932C50.2424 40.762 50.0554 40.5183 49.9307 40.201C49.602 40.3937 49.2677 40.5637 48.9277 40.711C48.599 40.8583 48.2647 40.9717 47.9247 41.051C47.5847 41.1303 47.2164 41.17 46.8197 41.17ZM55.4484 31.837V32.959C55.7771 32.653 56.0831 32.4093 56.3664 32.228C56.6611 32.0353 56.9557 31.8937 57.2504 31.803C57.5451 31.7123 57.8567 31.667 58.1854 31.667C58.4007 31.667 58.6161 31.684 58.8314 31.718C59.0581 31.752 59.2677 31.7973 59.4604 31.854L59.1544 33.537C58.9504 33.4803 58.7407 33.4407 58.5254 33.418C58.3214 33.384 58.1231 33.367 57.9304 33.367C57.5677 33.367 57.1937 33.4407 56.8084 33.588C56.4344 33.7353 56.0321 33.9847 55.6014 34.336V41H53.7824V31.837H55.4484ZM26.4846 49.474L26.0936 50.97C25.8896 50.8907 25.6516 50.8227 25.3796 50.766C25.1076 50.698 24.8242 50.6413 24.5296 50.596C24.2349 50.5507 23.9402 50.5167 23.6456 50.494C23.3509 50.4713 23.0732 50.46 22.8126 50.46C22.0079 50.46 21.3676 50.6017 20.8916 50.885C20.4156 51.1683 20.1776 51.5707 20.1776 52.092C20.1776 52.3527 20.2342 52.585 20.3476 52.789C20.4722 52.9817 20.6592 53.163 20.9086 53.333C21.1692 53.503 21.5092 53.673 21.9286 53.843C22.3479 54.0017 22.8522 54.1717 23.4416 54.353C24.0762 54.5457 24.6202 54.7553 25.0736 54.982C25.5269 55.2087 25.9009 55.458 26.1956 55.73C26.4902 55.9907 26.7056 56.2967 26.8416 56.648C26.9776 56.988 27.0456 57.3847 27.0456 57.838C27.0456 58.552 26.8586 59.1583 26.4846 59.657C26.1106 60.1443 25.5666 60.5183 24.8526 60.779C24.1386 61.0397 23.2602 61.17 22.2176 61.17C21.8776 61.17 21.5149 61.153 21.1296 61.119C20.7442 61.085 20.3532 61.0397 19.9566 60.983C19.5712 60.915 19.1972 60.8357 18.8346 60.745C18.4832 60.6543 18.1659 60.558 17.8826 60.456L18.2906 58.977C18.5626 59.079 18.8686 59.1697 19.2086 59.249C19.5486 59.3283 19.8999 59.402 20.2626 59.47C20.6252 59.5267 20.9822 59.572 21.3336 59.606C21.6849 59.64 22.0136 59.657 22.3196 59.657C22.9316 59.657 23.4416 59.5947 23.8496 59.47C24.2576 59.334 24.5692 59.1413 24.7846 58.892C24.9999 58.6427 25.1076 58.3423 25.1076 57.991C25.1076 57.7303 25.0339 57.498 24.8866 57.294C24.7392 57.09 24.5182 56.9087 24.2236 56.75C23.9402 56.58 23.5719 56.41 23.1186 56.24C22.6652 56.07 22.1326 55.883 21.5206 55.679C20.9426 55.4863 20.4439 55.2767 20.0246 55.05C19.6166 54.8233 19.2766 54.574 19.0046 54.302C18.7439 54.03 18.5456 53.724 18.4096 53.384C18.2849 53.044 18.2226 52.653 18.2226 52.211C18.2226 51.735 18.3189 51.2987 18.5116 50.902C18.7042 50.494 18.9876 50.1427 19.3616 49.848C19.7469 49.5533 20.2286 49.3267 20.8066 49.168C21.3846 49.0093 22.0532 48.93 22.8126 48.93C23.2546 48.93 23.7022 48.9583 24.1556 49.015C24.6089 49.0603 25.0396 49.1227 25.4476 49.202C25.8669 49.2813 26.2126 49.372 26.4846 49.474ZM32.1963 61.17C31.5276 61.17 30.9383 61.085 30.4283 60.915C29.9296 60.7337 29.499 60.4617 29.1363 60.099C28.785 59.7363 28.5186 59.2717 28.3373 58.705C28.156 58.127 28.0653 57.447 28.0653 56.665C28.0653 55.747 28.173 54.9707 28.3883 54.336C28.615 53.69 28.921 53.1743 29.3063 52.789C29.703 52.3923 30.162 52.109 30.6833 51.939C31.216 51.7577 31.794 51.667 32.4173 51.667C33.6413 51.667 34.5423 51.9843 35.1203 52.619C35.7096 53.2537 36.0043 54.285 36.0043 55.713C36.0043 55.7923 35.9986 55.9057 35.9873 56.053C35.9873 56.189 35.9873 56.325 35.9873 56.461C35.7266 56.4837 35.3923 56.512 34.9843 56.546C34.5876 56.58 34.1286 56.614 33.6073 56.648C33.086 56.682 32.5193 56.7103 31.9073 56.733C31.2953 56.7557 30.655 56.7727 29.9863 56.784C29.975 56.8293 29.9693 56.8803 29.9693 56.937C29.9693 56.9823 29.9693 57.0333 29.9693 57.09C29.9693 57.7133 30.0656 58.2177 30.2583 58.603C30.451 58.977 30.7343 59.2547 31.1083 59.436C31.4823 59.606 31.9526 59.691 32.5193 59.691C32.8593 59.691 33.2106 59.674 33.5733 59.64C33.9473 59.5947 34.31 59.5437 34.6613 59.487C35.0126 59.419 35.347 59.3453 35.6643 59.266L35.9023 60.643C35.5623 60.745 35.194 60.8413 34.7973 60.932C34.412 61.0113 34.004 61.068 33.5733 61.102C33.1426 61.1473 32.6836 61.17 32.1963 61.17ZM30.0033 55.543C30.4793 55.543 30.9326 55.5373 31.3633 55.526C31.8053 55.5033 32.2133 55.4807 32.5873 55.458C32.9613 55.4353 33.2786 55.4183 33.5393 55.407C33.8113 55.3843 34.0153 55.3673 34.1513 55.356C34.14 54.7893 34.0663 54.336 33.9303 53.996C33.7943 53.656 33.5903 53.4123 33.3183 53.265C33.0463 53.1063 32.7006 53.027 32.2813 53.027C32.0206 53.027 31.7656 53.0667 31.5163 53.146C31.267 53.214 31.0346 53.3443 30.8193 53.537C30.6153 53.7183 30.4396 53.9733 30.2923 54.302C30.145 54.6193 30.0486 55.033 30.0033 55.543ZM39.2204 51.837V52.959C39.549 52.653 39.855 52.4093 40.1384 52.228C40.433 52.0353 40.7277 51.8937 41.0224 51.803C41.317 51.7123 41.6287 51.667 41.9574 51.667C42.1727 51.667 42.388 51.684 42.6034 51.718C42.83 51.752 43.0397 51.7973 43.2324 51.854L42.9264 53.537C42.7224 53.4803 42.5127 53.4407 42.2974 53.418C42.0934 53.384 41.895 53.367 41.7024 53.367C41.3397 53.367 40.9657 53.4407 40.5804 53.588C40.2064 53.7353 39.804 53.9847 39.3734 54.336V61H37.5544V51.837H39.2204ZM46.843 61L43.528 51.871L45.466 51.803L47.931 59.283L50.311 51.803L52.232 51.871L48.883 61H46.843ZM54.2936 50.273C53.897 50.273 53.6136 50.1993 53.4436 50.052C53.2736 49.9047 53.1886 49.6553 53.1886 49.304C53.1886 48.964 53.2736 48.7203 53.4436 48.573C53.6136 48.4143 53.897 48.335 54.2936 48.335C54.6903 48.335 54.9736 48.4143 55.1436 48.573C55.3136 48.7203 55.3986 48.964 55.3986 49.304C55.3986 49.6553 55.3136 49.9047 55.1436 50.052C54.9736 50.1993 54.6903 50.273 54.2936 50.273ZM53.3756 61V51.837H55.2116V61H53.3756ZM56.7528 56.563C56.7528 55.4637 56.9228 54.557 57.2628 53.843C57.6028 53.1177 58.1015 52.5737 58.7588 52.211C59.4275 51.8483 60.2378 51.667 61.1898 51.667C61.5071 51.667 61.8301 51.684 62.1588 51.718C62.4988 51.7407 62.8275 51.7803 63.1448 51.837C63.4621 51.8823 63.7511 51.9447 64.0118 52.024L63.7398 53.554C63.4905 53.4973 63.2298 53.452 62.9578 53.418C62.6858 53.3727 62.4138 53.3387 62.1418 53.316C61.8811 53.2933 61.6261 53.282 61.3768 53.282C60.7875 53.282 60.2888 53.401 59.8808 53.639C59.4841 53.877 59.1781 54.234 58.9628 54.71C58.7588 55.186 58.6568 55.798 58.6568 56.546C58.6568 57.226 58.7645 57.7927 58.9798 58.246C59.1951 58.688 59.5068 59.0223 59.9148 59.249C60.3228 59.4643 60.8158 59.572 61.3938 59.572C61.6545 59.572 61.9208 59.5607 62.1928 59.538C62.4761 59.5153 62.7595 59.4813 63.0428 59.436C63.3375 59.3907 63.6208 59.3397 63.8928 59.283L64.1648 60.762C63.7341 60.8753 63.2298 60.9717 62.6518 61.051C62.0851 61.1303 61.5355 61.17 61.0028 61.17C59.5975 61.17 58.5378 60.796 57.8238 60.048C57.1098 59.2887 56.7528 58.127 56.7528 56.563ZM69.0684 61.17C68.3997 61.17 67.8104 61.085 67.3004 60.915C66.8017 60.7337 66.371 60.4617 66.0084 60.099C65.657 59.7363 65.3907 59.2717 65.2094 58.705C65.028 58.127 64.9374 57.447 64.9374 56.665C64.9374 55.747 65.045 54.9707 65.2604 54.336C65.487 53.69 65.793 53.1743 66.1784 52.789C66.575 52.3923 67.034 52.109 67.5554 51.939C68.088 51.7577 68.666 51.667 69.2894 51.667C70.5134 51.667 71.4144 51.9843 71.9924 52.619C72.5817 53.2537 72.8764 54.285 72.8764 55.713C72.8764 55.7923 72.8707 55.9057 72.8594 56.053C72.8594 56.189 72.8594 56.325 72.8594 56.461C72.5987 56.4837 72.2644 56.512 71.8564 56.546C71.4597 56.58 71.0007 56.614 70.4794 56.648C69.958 56.682 69.3914 56.7103 68.7794 56.733C68.1674 56.7557 67.527 56.7727 66.8584 56.784C66.847 56.8293 66.8414 56.8803 66.8414 56.937C66.8414 56.9823 66.8414 57.0333 66.8414 57.09C66.8414 57.7133 66.9377 58.2177 67.1304 58.603C67.323 58.977 67.6064 59.2547 67.9804 59.436C68.3544 59.606 68.8247 59.691 69.3914 59.691C69.7314 59.691 70.0827 59.674 70.4454 59.64C70.8194 59.5947 71.182 59.5437 71.5334 59.487C71.8847 59.419 72.219 59.3453 72.5364 59.266L72.7744 60.643C72.4344 60.745 72.066 60.8413 71.6694 60.932C71.284 61.0113 70.876 61.068 70.4454 61.102C70.0147 61.1473 69.5557 61.17 69.0684 61.17ZM66.8754 55.543C67.3514 55.543 67.8047 55.5373 68.2354 55.526C68.6774 55.5033 69.0854 55.4807 69.4594 55.458C69.8334 55.4353 70.1507 55.4183 70.4114 55.407C70.6834 55.3843 70.8874 55.3673 71.0234 55.356C71.012 54.7893 70.9384 54.336 70.8024 53.996C70.6664 53.656 70.4624 53.4123 70.1904 53.265C69.9184 53.1063 69.5727 53.027 69.1534 53.027C68.8927 53.027 68.6377 53.0667 68.3884 53.146C68.139 53.214 67.9067 53.3443 67.6914 53.537C67.4874 53.7183 67.3117 53.9733 67.1644 54.302C67.017 54.6193 66.9207 55.033 66.8754 55.543Z" fill="#0F100F"/>
</svg>
