<svg width="91" height="97" viewBox="0 0 91 97" fill="none" xmlns="http://www.w3.org/2000/svg">
<circle cx="45.118" cy="51.2033" r="44.618" fill="white" stroke="black"/>
<circle cx="45.118" cy="45.118" r="44.618" fill="#00D889" stroke="black"/>
<path d="M50.1187 47.4258H22V42.61H50.1187C48.4017 40.8169 47.1039 38.628 46.3275 36.2161C45.9955 35.1788 45.7696 34.107 45.6537 33.0192C45.5373 31.7067 45.6537 30.3687 45.6537 29H50.1187V31.1449C50.0881 32.9955 50.5337 34.8202 51.4083 36.4255C53.6093 40.3629 56.809 42.5538 61.2353 42.5946H63V47.4666C59.2961 47.0326 56.0236 47.9773 53.3524 50.8168C50.6811 53.6562 49.7745 57.0881 50.1769 61H45.6052C45.1786 55.8114 46.5506 51.3122 50.1187 47.4258Z" fill="white"/>
</svg>
