<svg width="37" height="38" viewBox="0 0 37 38" fill="none" xmlns="http://www.w3.org/2000/svg">
<path d="M36.7151 18.6992C37.1132 19.5756 37.0761 20.4529 36.7151 21.3302C36.5991 21.8038 36.2632 22.1534 35.9606 22.4926C35.1588 23.3936 34.911 24.4092 35.1681 25.5849C35.2717 26.0117 35.3357 26.4475 35.3593 26.8866C35.4521 28.4261 34.6883 29.3669 33.3501 29.9183C32.4732 30.2811 31.6417 30.7179 31.0672 31.5288C30.7192 32.0613 30.6255 32.6922 30.4306 33.2815C29.9443 34.7642 29.098 35.3828 27.5621 35.3412C26.9626 35.325 26.3631 35.3232 25.7636 35.3165C25.0871 35.3089 24.5572 35.6282 24.0784 36.082C23.6143 36.5235 23.2116 37.0294 22.704 37.415C21.8511 38.0696 20.9315 38.1909 19.9747 37.704C19.4374 37.433 18.927 37.1033 18.4073 36.7954C17.6908 36.371 16.9521 36.2563 16.1494 36.5339C15.5678 36.7363 14.975 36.9036 14.3741 37.0351C13.3115 37.2681 12.4689 36.8522 11.8267 36.0034C11.5356 35.6169 11.2788 35.2048 11.0593 34.7718C10.5479 33.7618 9.73127 33.237 8.65571 33.075C8.291 33.02 7.93 32.9405 7.56808 32.8713C6.24195 32.6202 5.37704 31.5876 5.34085 30.1996C5.32392 29.5879 5.26968 28.9779 5.17844 28.3731C5.07451 27.6767 4.68196 27.168 4.15763 26.7436C3.79663 26.4489 3.43471 26.1543 3.06721 25.8691C2.5633 25.4769 2.27284 24.9274 2 24.3675V23.1359C2.08074 22.4727 2.3712 21.8815 2.64961 21.2913C3.03381 20.4737 3.06443 19.6646 2.70158 18.8366C2.6329 18.6803 2.55959 18.5202 2.58186 18.3383C3.26302 16.561 4.25785 14.9798 5.4587 13.5227C8.53905 9.77397 12.9378 7.40958 17.7085 6.93829C21.3556 6.57165 24.8022 7.26419 28.0438 8.98466C30.7628 10.4294 32.9622 12.4834 34.7078 15.0556C34.8342 15.2348 34.9403 15.428 35.0243 15.6316C35.1356 16.3724 35.5356 16.9579 35.9727 17.5349C36.2437 17.9034 36.6149 18.2123 36.7151 18.6992Z" fill="white"/>
<path d="M34.9511 15.6754C33.0366 12.6059 30.4753 10.2753 27.2532 8.7244C25.3176 7.79959 23.2366 7.23279 21.107 7.05035C18.5165 6.81201 15.906 7.14247 13.4509 8.01954C11.3422 8.76983 9.39038 9.91811 7.69722 11.4046C5.72148 13.1184 4.19954 15.1781 3.03581 17.5304C2.90496 17.7929 2.87805 18.1093 2.64604 18.3206C2.24236 18.1311 2.25257 17.6934 2.10223 17.3533C2.02706 17.1827 2.08645 16.98 2.00293 16.8066V15.7645C2.24195 14.9464 2.77364 14.2501 3.49239 13.8138C4.77212 12.9981 5.27232 11.8243 5.34842 10.3085C5.4672 7.99301 6.01102 7.34689 8.20669 7.01909C9.67296 6.80025 10.6836 6.1276 11.3313 4.79082C11.5754 4.28776 11.8761 3.80648 12.3345 3.45405C12.9915 2.94814 13.7163 2.78235 14.5098 2.98035C15.0452 3.11583 15.5695 3.29394 16.0994 3.45405C16.9393 3.70511 17.7383 3.63311 18.4937 3.15657C18.9262 2.88467 19.3614 2.61466 19.8078 2.36929C20.939 1.74969 22.0591 1.91548 22.9797 2.82309C23.2222 3.0425 23.4518 3.27628 23.6674 3.52321C24.5694 4.66008 25.7684 4.85619 27.088 4.67714C28.8698 4.4346 29.9305 5.11199 30.492 6.85614C30.6674 7.40279 30.7593 7.98259 31.0711 8.47903C31.7207 9.40273 32.7239 9.78169 33.6881 10.2194C34.7933 10.7206 35.3418 11.614 35.4327 12.8257C35.3771 13.702 35.1126 14.548 35.0736 15.4272C35.0739 15.4755 35.0629 15.5232 35.0416 15.5664C35.0203 15.6095 34.9893 15.6469 34.9511 15.6754Z" fill="white"/>
<path d="M34.7151 16.6992C35.1132 17.5756 35.0761 18.4529 34.7151 19.3302C34.5991 19.8038 34.2632 20.1534 33.9606 20.4926C33.1588 21.3936 32.911 22.4092 33.1681 23.5849C33.2717 24.0117 33.3357 24.4475 33.3593 24.8866C33.4521 26.4261 32.6883 27.3669 31.3501 27.9183C30.4732 28.2811 29.6417 28.7179 29.0672 29.5288C28.7192 30.0613 28.6255 30.6922 28.4306 31.2815C27.9443 32.7642 27.098 33.3828 25.5621 33.3412C24.9626 33.325 24.3631 33.3232 23.7636 33.3165C23.0871 33.3089 22.5572 33.6282 22.0784 34.082C21.6143 34.5235 21.2116 35.0294 20.704 35.415C19.8511 36.0696 18.9315 36.1909 17.9747 35.704C17.4374 35.433 16.927 35.1033 16.4073 34.7954C15.6908 34.371 14.9521 34.2563 14.1494 34.5339C13.5678 34.7363 12.975 34.9036 12.3741 35.0351C11.3115 35.2681 10.4689 34.8522 9.82673 34.0034C9.53559 33.6169 9.27875 33.2048 9.05926 32.7718C8.54793 31.7618 7.73127 31.237 6.65571 31.075C6.291 31.02 5.93 30.9405 5.56808 30.8713C4.24195 30.6202 3.37704 29.5876 3.34085 28.1996C3.32392 27.5879 3.26968 26.9779 3.17844 26.3731C3.07451 25.6767 2.68196 25.168 2.15763 24.7436C1.79663 24.4489 1.43471 24.1543 1.06721 23.8691C0.563304 23.4769 0.272836 22.9274 5.38357e-08 22.3675L0 21.1359C0.080737 20.4727 0.371205 19.8815 0.649609 19.2913C1.03381 18.4737 1.06443 17.6646 0.701578 16.8366C0.632905 16.6803 0.559592 16.5202 0.581864 16.3383C1.26302 14.561 2.25785 12.9798 3.4587 11.5227C6.53905 7.77397 10.9378 5.40958 15.7085 4.93829C19.3556 4.57165 22.8022 5.26419 26.0438 6.98466C28.7628 8.42943 30.9622 10.4834 32.7078 13.0556C32.8342 13.2348 32.9403 13.428 33.0243 13.6316C33.1356 14.3724 33.5356 14.9579 33.9727 15.5349C34.2437 15.9034 34.6149 16.2123 34.7151 16.6992Z" fill="#00D889"/>
<path d="M32.9511 13.6754C31.0366 10.6059 28.4753 8.27528 25.2532 6.7244C23.3176 5.79959 21.2366 5.23279 19.107 5.05035C16.5165 4.81201 13.906 5.14247 11.4509 6.01954C9.34216 6.76983 7.39038 7.91811 5.69722 9.40458C3.72148 11.1184 2.19954 13.1781 1.03581 15.5304C0.904959 15.7929 0.878047 16.1093 0.646044 16.3206C0.242358 16.1311 0.252566 15.6934 0.102228 15.3533C0.0270587 15.1827 0.0864514 14.98 0.00293027 14.8066L0.00293023 13.7645C0.241949 12.9464 0.773643 12.2501 1.49239 11.8138C2.77212 10.9981 3.27232 9.82427 3.34842 8.30844C3.4672 5.99301 4.01102 5.34689 6.20669 5.01909C7.67296 4.80025 8.68356 4.1276 9.33131 2.79082C9.57538 2.28776 9.87606 1.80648 10.3345 1.45405C10.9915 0.948146 11.7163 0.782353 12.5098 0.980357C13.0452 1.11583 13.5695 1.29394 14.0994 1.45405C14.9393 1.70511 15.7383 1.63311 16.4937 1.15657C16.9262 0.884672 17.3614 0.614666 17.8078 0.36929C18.939 -0.250305 20.0591 -0.0845134 20.9797 0.823089C21.2222 1.0425 21.4518 1.27628 21.6674 1.52321C22.5694 2.66008 23.7684 2.85619 25.088 2.67714C26.8698 2.4346 27.9305 3.11199 28.492 4.85614C28.6674 5.40279 28.7593 5.98259 29.0711 6.47903C29.7207 7.40273 30.7239 7.78169 31.6881 8.21939C32.7933 8.72056 33.3418 9.61395 33.4327 10.8257C33.3771 11.702 33.1126 12.548 33.0736 13.4272C33.0739 13.4755 33.0629 13.5232 33.0416 13.5664C33.0203 13.6095 32.9893 13.6469 32.9511 13.6754Z" fill="#00D889"/>
<path d="M18 10.0017C14.6829 10.0017 12 12.6622 12 15.9517C12 20.4142 18 27.0017 18 27.0017C18 27.0017 24 20.4142 24 15.9517C24 12.6622 21.3171 10.0017 18 10.0017ZM18 18.0767C16.8171 18.0767 15.8571 17.1247 15.8571 15.9517C15.8571 14.7787 16.8171 13.8267 18 13.8267C19.1829 13.8267 20.1429 14.7787 20.1429 15.9517C20.1429 17.1247 19.1829 18.0767 18 18.0767Z" fill="white"/>
</svg>
