<svg width="37" height="38" viewBox="0 0 37 38" fill="none" xmlns="http://www.w3.org/2000/svg">
<path d="M36.7151 18.7009C37.1132 19.5773 37.0761 20.4546 36.7151 21.3319C36.5991 21.8056 36.2632 22.1551 35.9606 22.4943C35.1588 23.3953 34.911 24.4109 35.1681 25.5866C35.2717 26.0134 35.3357 26.4492 35.3593 26.8883C35.4521 28.4278 34.6883 29.3686 33.3501 29.92C32.4732 30.2828 31.6417 30.7196 31.0672 31.5305C30.7192 32.063 30.6255 32.6939 30.4306 33.2832C29.9443 34.7659 29.098 35.3845 27.5621 35.3429C26.9626 35.3268 26.3631 35.3249 25.7636 35.3182C25.0871 35.3106 24.5572 35.6299 24.0784 36.0837C23.6143 36.5252 23.2116 37.0311 22.704 37.4167C21.8511 38.0714 20.9315 38.1926 19.9747 37.7057C19.4374 37.4347 18.927 37.105 18.4073 36.7971C17.6908 36.3727 16.9521 36.258 16.1494 36.5356C15.5678 36.738 14.975 36.9053 14.3741 37.0368C13.3115 37.2699 12.4689 36.854 11.8267 36.0051C11.5356 35.6186 11.2788 35.2065 11.0593 34.7735C10.5479 33.7636 9.73127 33.2387 8.65571 33.0767C8.291 33.0217 7.93 32.9422 7.56808 32.873C6.24195 32.6219 5.37704 31.5893 5.34085 30.2014C5.32392 29.5896 5.26968 28.9796 5.17844 28.3748C5.07451 27.6784 4.68196 27.1697 4.15763 26.7453C3.79663 26.4506 3.43471 26.156 3.06721 25.8708C2.5633 25.4786 2.27284 24.9291 2 24.3692V23.1376C2.08074 22.4744 2.3712 21.8832 2.64961 21.293C3.03381 20.4754 3.06443 19.6663 2.70158 18.8383C2.6329 18.682 2.55959 18.5219 2.58186 18.34C3.26302 16.5627 4.25785 14.9815 5.4587 13.5244C8.53905 9.7757 12.9378 7.41132 17.7085 6.94003C21.3556 6.57339 24.8022 7.26593 28.0438 8.9864C30.7628 10.4312 32.9622 12.4851 34.7078 15.0573C34.8342 15.2365 34.9403 15.4297 35.0243 15.6333C35.1356 16.3742 35.5356 16.9596 35.9727 17.5366C36.2437 17.9051 36.6149 18.214 36.7151 18.7009Z" fill="white"/>
<path d="M34.9511 15.6771C33.0366 12.6076 30.4753 10.277 27.2532 8.72614C25.3176 7.80133 23.2366 7.23453 21.107 7.05209C18.5165 6.81375 15.906 7.14421 13.4509 8.02128C11.3422 8.77157 9.39038 9.91985 7.69722 11.4063C5.72148 13.1201 4.19954 15.1798 3.03581 17.5321C2.90496 17.7946 2.87805 18.111 2.64604 18.3223C2.24236 18.1328 2.25257 17.6951 2.10223 17.355C2.02706 17.1844 2.08645 16.9817 2.00293 16.8083V15.7662C2.24195 14.9481 2.77364 14.2518 3.49239 13.8155C4.77212 12.9998 5.27232 11.826 5.34842 10.3102C5.4672 7.99475 6.01102 7.34863 8.20669 7.02083C9.67296 6.80198 10.6836 6.12934 11.3313 4.79256C11.5754 4.2895 11.8761 3.80822 12.3345 3.45579C12.9915 2.94988 13.7163 2.78409 14.5098 2.98209C15.0452 3.11757 15.5695 3.29568 16.0994 3.45579C16.9393 3.70685 17.7383 3.63485 18.4937 3.15831C18.9262 2.88641 19.3614 2.6164 19.8078 2.37103C20.939 1.75143 22.0591 1.91722 22.9797 2.82483C23.2222 3.04424 23.4518 3.27802 23.6674 3.52495C24.5694 4.66182 25.7684 4.85793 27.088 4.67887C28.8698 4.43634 29.9305 5.11373 30.492 6.85788C30.6674 7.40453 30.7593 7.98433 31.0711 8.48076C31.7207 9.40447 32.7239 9.78343 33.6881 10.2211C34.7933 10.7223 35.3418 11.6157 35.4327 12.8274C35.3771 13.7037 35.1126 14.5497 35.0736 15.4289C35.0739 15.4772 35.0629 15.5249 35.0416 15.5681C35.0203 15.6113 34.9893 15.6486 34.9511 15.6771Z" fill="white"/>
<path d="M34.7151 16.7009C35.1132 17.5773 35.0761 18.4546 34.7151 19.3319C34.5991 19.8056 34.2632 20.1551 33.9606 20.4943C33.1588 21.3953 32.911 22.4109 33.1681 23.5866C33.2717 24.0134 33.3357 24.4492 33.3593 24.8883C33.4521 26.4278 32.6883 27.3686 31.3501 27.92C30.4732 28.2828 29.6417 28.7196 29.0672 29.5305C28.7192 30.063 28.6255 30.6939 28.4306 31.2832C27.9443 32.7659 27.098 33.3845 25.5621 33.3429C24.9626 33.3268 24.3631 33.3249 23.7636 33.3182C23.0871 33.3106 22.5572 33.6299 22.0784 34.0837C21.6143 34.5252 21.2116 35.0311 20.704 35.4167C19.8511 36.0714 18.9315 36.1926 17.9747 35.7057C17.4374 35.4347 16.927 35.105 16.4073 34.7971C15.6908 34.3727 14.9521 34.258 14.1494 34.5356C13.5678 34.738 12.975 34.9053 12.3741 35.0368C11.3115 35.2699 10.4689 34.854 9.82673 34.0051C9.53559 33.6186 9.27875 33.2065 9.05926 32.7735C8.54793 31.7636 7.73127 31.2387 6.65571 31.0767C6.291 31.0217 5.93 30.9422 5.56808 30.873C4.24195 30.6219 3.37704 29.5893 3.34085 28.2014C3.32392 27.5896 3.26968 26.9796 3.17844 26.3748C3.07451 25.6784 2.68196 25.1697 2.15763 24.7453C1.79663 24.4506 1.43471 24.156 1.06721 23.8708C0.563304 23.4786 0.272836 22.9291 5.38357e-08 22.3692L0 21.1376C0.080737 20.4744 0.371205 19.8832 0.649609 19.293C1.03381 18.4754 1.06443 17.6663 0.701578 16.8383C0.632905 16.682 0.559592 16.5219 0.581864 16.34C1.26302 14.5627 2.25785 12.9815 3.4587 11.5244C6.53905 7.7757 10.9378 5.41132 15.7085 4.94003C19.3556 4.57339 22.8022 5.26593 26.0438 6.9864C28.7628 8.43117 30.9622 10.4851 32.7078 13.0573C32.8342 13.2365 32.9403 13.4297 33.0243 13.6333C33.1356 14.3742 33.5356 14.9596 33.9727 15.5366C34.2437 15.9051 34.6149 16.214 34.7151 16.7009Z" fill="#00D889"/>
<path d="M32.9511 13.6771C31.0366 10.6076 28.4753 8.27702 25.2532 6.72614C23.3176 5.80133 21.2366 5.23453 19.107 5.05209C16.5165 4.81375 13.906 5.14421 11.4509 6.02128C9.34216 6.77157 7.39038 7.91985 5.69722 9.40632C3.72148 11.1201 2.19954 13.1798 1.03581 15.5321C0.904959 15.7946 0.878047 16.111 0.646044 16.3223C0.242358 16.1328 0.252566 15.6951 0.102228 15.355C0.0270587 15.1844 0.0864514 14.9817 0.00293027 14.8083L0.00293023 13.7662C0.241949 12.9481 0.773643 12.2518 1.49239 11.8155C2.77212 10.9998 3.27232 9.82601 3.34842 8.31018C3.4672 5.99475 4.01102 5.34863 6.20669 5.02083C7.67296 4.80198 8.68356 4.12934 9.33131 2.79256C9.57538 2.2895 9.87606 1.80822 10.3345 1.45579C10.9915 0.949885 11.7163 0.784092 12.5098 0.982096C13.0452 1.11757 13.5695 1.29568 14.0994 1.45579C14.9393 1.70685 15.7383 1.63485 16.4937 1.15831C16.9262 0.886411 17.3614 0.616405 17.8078 0.371029C18.939 -0.248566 20.0591 -0.0827739 20.9797 0.824828C21.2222 1.04424 21.4518 1.27802 21.6674 1.52495C22.5694 2.66182 23.7684 2.85793 25.088 2.67887C26.8698 2.43634 27.9305 3.11373 28.492 4.85788C28.6674 5.40453 28.7593 5.98433 29.0711 6.48076C29.7207 7.40447 30.7239 7.78343 31.6881 8.22113C32.7933 8.7223 33.3418 9.61569 33.4327 10.8274C33.3771 11.7037 33.1126 12.5497 33.0736 13.4289C33.0739 13.4772 33.0629 13.5249 33.0416 13.5681C33.0203 13.6113 32.9893 13.6486 32.9511 13.6771Z" fill="#00D889"/>
<path d="M24.175 21.3184C23.15 21.3184 22.1583 21.1517 21.2333 20.8517C20.9417 20.7517 20.6167 20.8267 20.3917 21.0517L19.0833 22.6934C16.725 21.5684 14.5167 19.4434 13.3417 17.0017L14.9667 15.6184C15.1917 15.385 15.2583 15.06 15.1667 14.7684C14.8583 13.8434 14.7 12.8517 14.7 11.8267C14.7 11.3767 14.325 11.0017 13.875 11.0017H10.9917C10.5417 11.0017 10 11.2017 10 11.8267C10 19.5684 16.4417 26.0017 24.175 26.0017C24.7667 26.0017 25 25.4767 25 25.0184V22.1434C25 21.6934 24.625 21.3184 24.175 21.3184Z" fill="white"/>
</svg>
