<svg width="59" height="44" viewBox="0 0 59 44" fill="none" xmlns="http://www.w3.org/2000/svg">
<g clip-path="url(#clip0_138_1275)">
<path d="M50.1505 29.5361C52.2502 30.1974 54.1476 31.3794 55.6654 32.9716C57.3513 34.7359 58.4966 36.9447 58.9662 39.3375C59.1169 40.0726 58.7445 40.5863 58.0065 40.6675C57.7959 40.6838 57.5845 40.6883 57.3734 40.681H41.6209C41.78 41.3096 41.9323 41.8538 42.0542 42.403C42.3013 43.52 41.9188 43.9949 40.7796 43.9949H19.937C19.3039 43.9949 18.6692 44.005 18.0361 43.9949C17.1406 43.9746 16.7276 43.4626 16.9155 42.5906C17.0475 41.9771 17.2168 41.3705 17.3912 40.6692H1.72498C1.53539 40.6692 1.34411 40.6692 1.15453 40.6692C0.247225 40.6218 -0.148873 40.1284 0.0508692 39.2479C1.10205 34.6193 3.86797 31.4643 8.27921 29.727C8.41633 29.673 8.55852 29.6307 8.69732 29.5817C8.71763 29.5817 8.73456 29.5597 8.80396 29.5209C8.6787 29.4026 8.57206 29.2877 8.45357 29.1829C6.49677 27.5335 5.69442 25.4076 6.10745 22.9184C6.52724 20.3836 8.05408 18.6649 10.473 17.7946C10.947 17.6256 11.0079 17.3924 11.0079 16.9767C11.0028 12.7401 11.0028 8.50186 11.0028 4.26527C10.9731 3.26702 11.2703 2.28632 11.8492 1.47186C12.1641 1.0087 12.59 0.63146 13.0881 0.374405C13.5862 0.11735 14.1408 -0.0113655 14.7014 -4.53243e-05C24.5632 -4.53243e-05 34.4251 -4.53243e-05 44.2869 -4.53243e-05C46.4028 -4.53243e-05 47.9821 1.7169 47.9923 4.05572C48.0126 8.31428 48.0126 12.5728 47.9923 16.8314C47.9923 17.4009 48.1379 17.6409 48.7015 17.8453C53.4276 19.5606 54.5194 25.8555 50.6753 29.0849L50.1505 29.5361ZM39.8824 25.6358C39.4931 23.5859 39.8029 21.749 41.0199 20.1115C42.237 18.474 43.9179 17.6003 45.9729 17.3992V16.8483C45.9729 12.6759 45.9729 8.50355 45.961 4.33118C45.9573 3.8686 45.8696 3.41054 45.702 2.97925C45.4515 2.34216 44.9538 2.01263 44.2226 2.01432C34.4048 2.02333 24.5869 2.02333 14.7691 2.01432C14.0666 2.01432 13.5741 2.32019 13.3185 2.92687C13.1377 3.35275 13.0411 3.80953 13.0341 4.27203C13.0205 8.46468 13.0341 12.659 13.0341 16.8534C13.0341 17.0359 13.0544 17.2201 13.0646 17.3975C16.7987 17.7203 19.9743 21.0054 19.1584 25.6392C20.262 25.6392 21.3589 25.6104 22.4473 25.651C22.9315 25.6679 23.1244 25.5057 23.2937 25.0545C23.8203 23.6041 24.8421 22.3855 26.1795 21.6129C27.5169 20.8402 29.0843 20.5629 30.6063 20.8297C33.1183 21.2826 34.8076 22.7511 35.7522 25.1068C35.8317 25.3062 36.0332 25.6003 36.1872 25.6054C37.4094 25.6544 38.6197 25.6358 39.8824 25.6358ZM39.7927 41.9585C38.9362 37.7338 33.8682 34.0836 29.2826 34.3286C24.4465 34.5855 19.5748 38.2796 19.2447 41.9585H39.7927ZM2.28527 38.5382C2.42238 38.6092 2.45454 38.643 2.49517 38.643C7.6862 38.6497 12.8772 38.6497 18.0683 38.643C18.2301 38.6387 18.3838 38.5714 18.4965 38.4554C19.3835 37.3671 20.2519 36.2585 21.171 35.106C18.3374 31.8005 14.7048 30.3253 10.3003 31.2632C6.28688 32.125 3.70039 34.6903 2.28527 38.5382ZM37.8004 35.133C38.6721 36.1926 39.4931 37.144 40.2548 38.1512C40.5257 38.5111 40.7626 38.6683 41.2231 38.6666C46.132 38.6514 51.0561 38.6582 55.9735 38.6548C56.1919 38.6548 56.4102 38.6311 56.7217 38.6125C55.3336 34.7055 52.7404 32.201 48.8116 31.297C44.3597 30.2712 40.6916 31.7583 37.8004 35.133ZM12.638 19.4338C12.03 19.4309 11.4274 19.5482 10.8651 19.779C10.3027 20.0097 9.79171 20.3493 9.36147 20.7782C8.93124 21.2071 8.59032 21.7168 8.35837 22.2778C8.12643 22.8389 8.00805 23.4403 8.01007 24.0473C8.01007 25.2699 8.49658 26.4425 9.36258 27.3071C10.2286 28.1716 11.4031 28.6573 12.6278 28.6573C13.8525 28.6573 15.0271 28.1716 15.8931 27.3071C16.7591 26.4425 17.2456 25.2699 17.2456 24.0473C17.2524 23.4407 17.1379 22.8388 16.9089 22.277C16.6799 21.7151 16.341 21.2044 15.912 20.7748C15.483 20.3452 14.9724 20.0054 14.4103 19.7751C13.8481 19.5449 13.2456 19.4289 12.638 19.4338ZM41.7529 24.0439C41.7526 24.9557 42.023 25.8472 42.53 26.6056C43.037 27.3641 43.7579 27.9554 44.6014 28.305C45.445 28.6545 46.3734 28.7466 47.2694 28.5695C48.1654 28.3925 48.9887 27.9542 49.6352 27.3101C50.2817 26.6661 50.7225 25.8452 50.9019 24.9511C51.0812 24.057 50.991 23.1299 50.6427 22.287C50.2945 21.444 49.7037 20.7231 48.9451 20.2153C48.1865 19.7074 47.2942 19.4355 46.3808 19.4338C45.7733 19.4318 45.1714 19.5497 44.6096 19.7807C44.0479 20.0116 43.5374 20.3512 43.1075 20.7797C42.6776 21.2083 42.3368 21.7174 42.1046 22.2779C41.8724 22.8383 41.7535 23.4391 41.7546 24.0456L41.7529 24.0439ZM34.117 27.3764C34.1157 26.4662 33.8444 25.5769 33.3374 24.8204C32.8304 24.064 32.1104 23.4744 31.2682 23.1259C30.426 22.7775 29.4993 22.6858 28.6049 22.8625C27.7106 23.0392 26.8887 23.4762 26.2429 24.1186C25.597 24.761 25.1562 25.58 24.976 26.4722C24.7957 27.3643 24.8842 28.2898 25.2301 29.1319C25.5761 29.974 26.164 30.6949 26.9199 31.2039C27.6757 31.7128 28.5656 31.9868 29.4772 31.9915C30.0863 31.9958 30.6902 31.8794 31.2539 31.6492C31.8176 31.419 32.3301 31.0795 32.7615 30.6503C33.193 30.2211 33.535 29.7108 33.7676 29.1488C34.0003 28.5869 34.119 27.9844 34.117 27.3764ZM22.8028 27.6687H18.8588C18.7333 27.6552 18.6067 27.6552 18.4813 27.6687C18.3421 27.6906 18.2113 27.7489 18.1021 27.8377C17.5723 28.3988 17.0594 28.9767 16.5465 29.5428C19.4698 30.7748 19.4698 30.7748 22.9416 34.0278L25.6331 32.8314C23.5612 30.8204 23.4054 30.5365 22.8028 27.662V27.6687ZM36.106 34.0498C37.7246 31.9424 39.9466 30.3759 42.4774 29.558C41.9272 28.9531 41.4042 28.3565 40.8541 27.787C40.7191 27.6935 40.5557 27.6498 40.3919 27.6637C39.1258 27.6637 37.8528 27.6637 36.5935 27.6535C36.2549 27.6535 36.1517 27.7701 36.0856 28.1115C35.9316 28.8449 35.8131 29.6324 35.4475 30.2678C34.899 31.2158 34.1509 32.0473 33.5161 32.8922L36.106 34.0498Z" fill="#00D889"/>
<path d="M24.7273 15.8969C24.7273 17.0021 24.7273 17.8606 24.7273 18.7207C24.7273 19.5167 24.3363 19.9814 23.7117 19.9729C23.0871 19.9645 22.7147 19.493 22.7045 18.6988C22.696 18.0228 22.6707 17.3468 22.7045 16.6709C22.7333 16.1977 22.586 15.9797 22.1205 15.8107C20.4142 15.1871 19.3851 13.4246 19.4849 11.417C19.5747 9.60032 20.8103 7.90028 22.4878 7.5454C23.4205 7.34768 24.4175 7.46428 25.3807 7.37641C25.8569 7.35077 26.325 7.2421 26.7637 7.05533C28.7442 6.1225 30.7026 5.14067 32.6713 4.18249C33.7732 3.64341 34.4402 4.05237 34.4419 5.26741C34.4419 9.5654 34.4419 13.8617 34.4419 18.1563C34.4419 19.3764 33.7766 19.7938 32.6848 19.2632C30.7331 18.3135 28.8 17.3299 26.828 16.4258C26.2372 16.1622 25.5331 16.0963 24.7273 15.8969ZM32.3903 16.8939V6.5737C30.7467 7.38148 29.164 8.15207 27.5914 8.95647C27.525 9.01357 27.4718 9.08441 27.4356 9.16407C27.3993 9.24374 27.3809 9.33032 27.3815 9.41781C27.3663 10.9539 27.3578 12.4901 27.3815 14.0262C27.397 14.1493 27.4395 14.2674 27.5059 14.3723C27.5723 14.4771 27.661 14.5661 27.7658 14.6329C28.541 15.057 29.3485 15.4203 30.1356 15.8158L32.3903 16.8939ZM25.2808 14.0211V9.42288C24.7256 9.42288 24.2212 9.42288 23.7168 9.42288C22.5505 9.42288 21.8277 10.0042 21.5585 11.1331C21.2488 12.4309 22.0054 13.8758 23.1328 14.0059C23.8319 14.0955 24.5445 14.0262 25.2808 14.0262V14.0211Z" fill="#00D889"/>
<path d="M38.6129 15.7448C38.4605 15.9425 38.3065 16.3363 38.0356 16.4478C37.8668 16.5116 37.6865 16.5392 37.5063 16.529C37.3261 16.5189 37.1501 16.471 36.9895 16.3886C36.5127 16.0798 36.1085 15.6717 35.8046 15.1922C35.6354 14.9032 35.6574 14.3794 35.7962 14.0448C35.9654 13.6189 36.5359 13.4448 36.8761 13.6949C37.4855 14.1428 37.9798 14.7478 38.5113 15.2987C38.5689 15.3646 38.557 15.4981 38.6129 15.7448Z" fill="#00D889"/>
<path d="M38.6246 7.77354C38.4791 8.09631 38.4249 8.33459 38.2861 8.49682C37.9578 8.87776 37.6032 9.23521 37.2247 9.56653C37.0329 9.73222 36.785 9.81857 36.5316 9.80792C36.2782 9.79727 36.0384 9.69044 35.8612 9.50925C35.684 9.32805 35.5828 9.08616 35.5783 8.83298C35.5737 8.57981 35.6662 8.33444 35.8367 8.14701C36.1753 7.77185 36.5003 7.36459 36.9167 7.10434C37.0722 7.01595 37.2443 6.96044 37.4222 6.94125C37.6001 6.92206 37.7801 6.93961 37.9509 6.99281C38.2353 7.11279 38.4063 7.50992 38.6246 7.77354Z" fill="#00D889"/>
<path d="M37.917 12.7825C37.6245 12.7692 37.3338 12.729 37.0487 12.6625C36.8301 12.6071 36.6398 12.4728 36.5148 12.2855C36.3897 12.0982 36.3387 11.8712 36.3716 11.6485C36.3775 11.4125 36.4735 11.1876 36.6399 11.0199C36.8063 10.8522 37.0307 10.7542 37.267 10.7461C37.688 10.7182 38.1105 10.7182 38.5315 10.7461C38.7877 10.7452 39.034 10.8444 39.2179 11.0225C39.4017 11.2007 39.5083 11.4436 39.515 11.6992C39.5263 11.9549 39.4393 12.2052 39.272 12.399C39.1046 12.5928 38.8694 12.7154 38.6144 12.7419C38.3834 12.758 38.1515 12.758 37.9204 12.7419L37.917 12.7825Z" fill="#00D889"/>
</g>
<defs>
<clipPath id="clip0_138_1275">
<rect width="59" height="44" fill="white"/>
</clipPath>
</defs>
</svg>
