<svg width="50" height="50" viewBox="0 0 50 50" fill="none" xmlns="http://www.w3.org/2000/svg">
<g clip-path="url(#clip0_138_1067)">
<path d="M49.9997 15.2458C49.7702 15.9717 49.6306 16.7406 49.2942 17.4117C48.3656 19.2655 46.8527 20.4144 44.8117 20.8478C44.6708 20.8778 44.53 20.9144 44.3487 20.9588V21.541C44.3487 27.4159 44.2978 33.3011 44.3722 39.1812C44.4035 41.676 42.5646 43.6983 39.9379 43.5991C38.112 43.5299 36.2927 43.586 34.4694 43.586H33.9086V45.1957H37.0687V50.0013H12.9269V45.2075H16.0973V43.586H15.5757C13.6889 43.586 11.8013 43.586 9.91288 43.586C7.36319 43.586 5.65992 41.8797 5.65862 39.3248C5.65862 33.3951 5.65862 27.4659 5.65862 21.5371V20.9666C1.67954 20.2838 -0.270227 16.9195 0.0349535 13.8646C0.355784 10.6543 3.29543 7.58767 7.51056 8.11118C7.57056 7.92057 7.63055 7.71952 7.69706 7.52631C9.1082 3.28338 12.02 0.803763 16.4325 0.0874697C16.5242 0.0651741 16.614 0.0359332 16.7012 0L18.7514 0C18.8213 0.0357292 18.8953 0.0629051 18.9718 0.0809421C20.8915 0.298963 22.6457 0.971305 24.1272 2.2011C25.0558 2.97005 25.8501 3.89827 26.7252 4.7795C26.7252 4.7795 26.8334 4.69595 26.9338 4.615C31.8806 0.659286 38.9519 2.21938 41.7729 7.90752C41.9255 8.21301 42.0872 8.24173 42.3781 8.18951C43.9611 7.89295 45.5976 8.20138 46.9645 9.05387C48.3314 9.90637 49.3293 11.241 49.7611 12.7941C49.8524 13.1204 49.9202 13.4468 49.9997 13.7837V15.2458ZM13.6846 16.1336C12.3921 16.1336 11.1571 16.1336 9.92331 16.1336C8.25134 16.1336 7.25494 17.1349 7.25364 18.8138C7.25364 25.6373 7.25364 32.4613 7.25364 39.2856C7.25364 40.9828 8.23178 41.958 9.9181 41.958C17.9884 41.958 26.0592 41.958 34.1304 41.958H34.6912V40.3914H36.3214V41.9162H37.9112V40.3966H39.5414V41.9933C40.0631 41.9489 40.5444 41.9724 40.9891 41.8627C42.1159 41.5703 42.7524 40.6173 42.7524 39.3052C42.7524 32.4817 42.7524 25.6578 42.7524 18.8334C42.7524 18.7198 42.7524 18.6049 42.7524 18.4913C42.6532 17.1271 41.6647 16.1675 40.2953 16.1414C39.1567 16.1218 38.0168 16.1414 36.8783 16.1414H36.3344V14.5905C36.3855 14.569 36.4389 14.5536 36.4936 14.5448C37.8121 14.5448 39.1306 14.5187 40.4479 14.5448C41.3591 14.5575 42.2378 14.8859 42.9345 15.474C43.6312 16.0622 44.1028 16.8737 44.2691 17.7707C44.363 18.2446 44.3552 18.7381 44.3995 19.2851C45.9802 18.9705 47.1579 18.1271 47.8596 16.7028C48.7242 14.9456 48.6173 13.187 47.4109 11.6426C45.6972 9.44803 43.4749 9.22478 40.9943 10.324C39.9888 7.01193 37.9321 4.81214 34.5047 4.1881C31.0773 3.56406 28.3841 4.9453 26.2518 7.65555C24.3776 3.46876 21.2724 1.14233 16.6934 1.72589C11.9109 2.33557 9.43946 5.4662 8.78606 10.1961C7.24451 9.5825 5.70948 9.43367 4.21227 10.247C2.71506 11.0603 1.8256 12.3084 1.66258 14.0017C1.41218 16.6127 3.39585 19.212 5.6547 19.2329C5.6547 19.0723 5.6547 18.913 5.6547 18.7551C5.67296 16.2211 7.35667 14.5448 9.89201 14.5382C10.9823 14.5382 12.0722 14.5382 13.1616 14.5382C13.3338 14.5382 13.5059 14.5513 13.6833 14.5591L13.6846 16.1336ZM14.5519 48.389H35.4515V46.8407H14.5519V48.389ZM32.2132 45.18V43.6134H17.7928V45.18H32.2132Z" fill="#00D889"/>
<path d="M31.4219 32.1326C30.8611 31.8519 30.3316 31.5686 29.7839 31.3245C29.6115 31.2672 29.4263 31.2609 29.2505 31.3062C28.0884 31.5294 27.5198 32.3023 27.3542 33.4237C27.2942 33.8232 27.0803 33.9264 26.6851 33.9172C25.5113 33.8872 24.3376 33.8963 23.1716 33.9172C22.8925 33.9172 22.7465 33.8324 22.693 33.5674C22.676 33.4877 22.6369 33.4133 22.6226 33.3337C22.4348 32.3049 21.9535 31.5373 20.8397 31.3506C20.6232 31.314 20.3676 31.2801 20.1785 31.3584C19.6412 31.5817 19.1286 31.865 18.5626 32.1417C17.5871 31.1613 16.6063 30.1835 15.6491 29.1952C15.6107 29.1338 15.5872 29.0643 15.5804 28.9922C15.5736 28.9202 15.5837 28.8475 15.6099 28.78C15.8199 28.3035 16.0821 27.8518 16.2868 27.374C16.3533 27.2212 16.3025 27.0176 16.3025 26.8374C16.3025 26.8231 16.2855 26.8087 16.2829 26.793C16.0651 25.6181 15.2487 25.1285 14.1727 24.9457C13.7932 24.8817 13.6889 24.6846 13.6967 24.3125C13.7202 23.1376 13.715 21.9626 13.6967 20.7955C13.6967 20.503 13.7671 20.3268 14.0723 20.2863C14.1517 20.2683 14.2294 20.2434 14.3044 20.2119C15.7821 19.7197 15.7873 19.7223 16.3285 18.2758C16.369 18.1272 16.3556 17.969 16.2907 17.8293C16.0834 17.3711 15.8251 16.9338 15.6386 16.469C15.6085 16.3813 15.599 16.2878 15.611 16.1959C15.623 16.1039 15.6561 16.016 15.7078 15.939C16.5737 15.0355 17.4619 14.1491 18.3631 13.2796C18.4622 13.1843 18.6891 13.1961 18.8548 13.2039C18.9578 13.2039 19.0569 13.3005 19.1586 13.3514C20.5359 14.0394 20.5372 14.0433 21.9157 13.4089C22.0494 13.3336 22.1527 13.214 22.2078 13.0707C22.3838 12.6509 22.5281 12.2184 22.6395 11.777C22.7308 11.3696 22.9421 11.2548 23.3255 11.2991C23.6144 11.3137 23.9039 11.3137 24.1928 11.2991V8.11499H25.7787V11.3044C26.1608 11.3044 26.4947 11.3213 26.8221 11.3044C27.092 11.2874 27.2563 11.371 27.3098 11.6464C27.3335 11.741 27.3636 11.8339 27.3998 11.9245C27.8876 13.3801 27.885 13.3867 29.3 13.9154C29.4643 13.9597 29.6389 13.9444 29.793 13.8723C30.2377 13.6752 30.6733 13.4546 31.0972 13.2196C31.3319 13.089 31.4884 13.1008 31.6841 13.3057C32.5335 14.183 33.3956 15.0469 34.2703 15.8972C34.4633 16.0865 34.5311 16.2484 34.3707 16.4834C34.3036 16.5948 34.2443 16.7109 34.1933 16.8306C33.5204 18.1779 33.5165 18.1805 34.1829 19.5435C34.2666 19.6745 34.3928 19.7727 34.5402 19.8216C34.9954 19.9926 35.4532 20.1453 35.9266 20.2837C36.177 20.3568 36.2983 20.4665 36.2957 20.7563C36.28 21.9926 36.2957 23.2368 36.2735 24.4679C36.2735 24.618 36.0857 24.7812 35.9553 24.9079C35.8809 24.9784 35.744 24.9836 35.6371 25.0201C34.1777 25.5019 34.1725 25.4993 33.6573 26.9366C33.6211 27.0864 33.6376 27.2442 33.7043 27.3831C33.9129 27.8414 34.1607 28.2813 34.3668 28.7409C34.4216 28.8636 34.4476 29.092 34.3772 29.1638C33.4121 30.1573 32.4183 31.1404 31.4219 32.1326ZM15.3295 23.618C15.5859 23.7282 15.8506 23.8177 16.1212 23.8856C16.8411 24.0084 17.2754 24.3778 17.3562 25.135C17.3931 25.3269 17.4605 25.5115 17.5558 25.682C17.7749 26.1507 18.1831 26.6142 18.1818 27.0789C18.1805 27.5437 17.7605 28.0072 17.5623 28.4863C17.5438 28.563 17.5428 28.6429 17.5595 28.72C17.5762 28.7971 17.6102 28.8694 17.6588 28.9315C18.0501 29.3453 18.4126 29.9328 18.8913 30.0607C19.2825 30.1639 19.8042 29.6795 20.2842 29.4928C20.4543 29.4363 20.6387 29.441 20.8058 29.5059C21.2988 29.7122 21.7553 30.0764 22.2639 30.1586C23.2081 30.3218 23.6555 30.8545 23.7872 31.7383C23.8537 32.1744 24.0793 32.3258 24.5189 32.2788C25.0157 32.2279 25.6378 32.4094 25.9861 32.1705C26.3095 31.9485 26.3199 31.2944 26.5169 30.8532C26.6137 30.6656 26.7708 30.5162 26.9629 30.4289C27.6854 30.1034 28.4179 29.7988 29.1605 29.515C29.3585 29.4459 29.5741 29.4459 29.7721 29.515C30.2221 29.6952 30.6472 29.9367 31.2211 30.2213C31.3257 30.0477 31.442 29.8816 31.5693 29.7239C31.8745 29.3858 32.4027 29.0973 32.4588 28.7304C32.5174 28.3388 32.1562 27.8766 31.9371 27.4667C31.859 27.3476 31.818 27.208 31.8192 27.0655C31.8203 26.9231 31.8636 26.7842 31.9436 26.6664C32.1966 26.2343 32.4914 25.7786 32.5696 25.3008C32.7222 24.3648 33.2634 23.9483 34.1255 23.8178C34.5807 23.7486 34.728 23.5005 34.6798 23.0462C34.6276 22.5645 34.8167 21.9522 34.5833 21.6245C34.3498 21.2968 33.7108 21.285 33.2791 21.0801C33.0806 20.9748 32.9224 20.8068 32.8291 20.6023C32.5135 19.9103 32.2657 19.1858 31.9345 18.5017C31.8656 18.3879 31.8293 18.2574 31.8293 18.1244C31.8293 17.9914 31.8656 17.8609 31.9345 17.7471C32.1536 17.3346 32.5357 16.8646 32.4705 16.4834C32.4053 16.1021 31.8575 15.811 31.5576 15.4468C31.2576 15.0825 30.9863 14.9885 30.5846 15.2731C30.3486 15.4402 30.063 15.5342 29.8021 15.6765C29.7041 15.7442 29.5879 15.7804 29.4689 15.7804C29.3499 15.7804 29.2337 15.7442 29.1357 15.6765C28.687 15.4154 28.2227 15.1165 27.7272 15.0238C26.7934 14.8658 26.3447 14.3319 26.2143 13.4467C26.1504 13.0172 25.9326 12.854 25.4892 12.901C24.991 12.9545 24.3676 12.7705 24.0207 13.0068C23.6972 13.2287 23.692 13.888 23.4898 14.3279C23.3799 14.5236 23.2084 14.6773 23.0021 14.7653C22.4243 15.0264 21.7866 15.1661 21.2519 15.4859C20.7171 15.8058 20.3181 15.7823 19.7977 15.4859C18.9161 14.9859 18.8965 15.0199 18.1753 15.747C17.4332 16.4899 17.4032 16.5069 17.9144 17.4155C18.1948 17.9181 18.2835 18.3372 17.9027 18.8202C17.7155 19.0459 17.5885 19.3154 17.5336 19.6035C17.3732 20.7341 16.7081 21.3007 15.6256 21.49C15.5545 21.5215 15.4922 21.57 15.4442 21.6313C15.3963 21.6925 15.364 21.7646 15.3504 21.8412C15.3126 22.4248 15.3295 23.0109 15.3295 23.618Z" fill="#00D889"/>
<path d="M39.5012 37.1002V19.3856H36.3398V17.7877C37.5058 17.7877 38.6587 17.7498 39.8064 17.802C40.4858 17.832 41.044 18.4939 41.1105 19.1833C41.1262 19.3451 41.121 19.5096 41.121 19.6715C41.121 25.3888 41.121 31.1057 41.121 36.8221C41.121 38.142 40.5341 38.7347 39.2208 38.7347H10.7621C9.47484 38.7347 8.88013 38.1368 8.88013 36.8534C8.88013 31.1039 8.88013 25.3549 8.88013 19.6062C8.88013 18.3791 9.48266 17.7694 10.706 17.7642C11.6802 17.7642 12.6558 17.7642 13.6704 17.7642V19.3464H10.513V37.1015L39.5012 37.1002Z" fill="#00D889"/>
<path d="M29.0481 11.2589V6.48853H33.8462V8.04731H30.6757V11.2589H29.0481Z" fill="#00D889"/>
<path d="M17.7682 8.09416H14.5664V6.48315H19.3124V11.2679H17.7682V8.09416Z" fill="#00D889"/>
<path d="M14.5259 13.6765V11.3135H12.927V9.71948H16.0923V13.6765H14.5259Z" fill="#00D889"/>
<path d="M37.0781 9.71045V11.2914H35.4974V13.6701H33.9089V9.71045H37.0781Z" fill="#00D889"/>
<path d="M21.0156 4.87476H22.5467V9.64903H21.0156V4.87476Z" fill="#00D889"/>
<path d="M37.0717 8.07603C36.6204 8.07603 36.1861 8.09431 35.7557 8.06167C35.6918 8.04018 35.6343 8.0028 35.5887 7.95302C35.5431 7.90325 35.5108 7.84271 35.4949 7.77707C35.4636 7.36061 35.4819 6.94023 35.4819 6.48853H37.0756L37.0717 8.07603Z" fill="#00D889"/>
<path d="M12.8658 8.05515H11.3464V6.48853H12.8723L12.8658 8.05515Z" fill="#00D889"/>
<path d="M24.9621 29.0439C23.6853 29.0361 22.4396 28.6488 21.383 27.9314C20.3263 27.2139 19.5063 26.1985 19.0269 25.0138C18.5474 23.8292 18.4302 22.5288 18.6901 21.2774C18.95 20.0261 19.5752 18.8801 20.4866 17.9849C21.3979 17.0897 22.5543 16.4856 23.8091 16.2491C25.0638 16.0126 26.3605 16.1545 27.5346 16.6567C28.7088 17.1588 29.7075 17.9987 30.4042 19.0698C31.1009 20.1409 31.4641 21.395 31.4479 22.673C31.4309 26.2031 28.5174 29.0622 24.9621 29.0439ZM29.8359 22.5855C29.8331 21.6291 29.5472 20.695 29.0144 19.9011C28.4816 19.1073 27.7258 18.4892 26.8424 18.125C25.9589 17.7608 24.9875 17.6668 24.0507 17.8548C23.114 18.0428 22.2539 18.5045 21.579 19.1815C20.9041 19.8585 20.4448 20.7205 20.259 21.6586C20.0732 22.5967 20.1692 23.5689 20.5349 24.4525C20.9007 25.336 21.5197 26.0913 22.3139 26.6229C23.1082 27.1545 24.0419 27.4387 24.9974 27.4394C25.6341 27.4412 26.2649 27.3167 26.8534 27.0733C27.4419 26.8298 27.9765 26.4722 28.4263 26.021C28.876 25.5698 29.2322 25.0339 29.4741 24.4443C29.716 23.8547 29.839 23.2229 29.8359 22.5855Z" fill="#00D889"/>
<path d="M24.9947 25.8152C24.3574 25.8137 23.7348 25.6229 23.2059 25.267C22.6769 24.9112 22.2652 24.4063 22.023 23.8161C21.7807 23.226 21.7188 22.5772 21.8451 21.9519C21.9713 21.3265 22.28 20.7527 22.7322 20.3031C23.1843 19.8534 23.7595 19.5481 24.385 19.4258C25.0105 19.3035 25.6583 19.3696 26.2462 19.6159C26.8341 19.8622 27.3359 20.2776 27.6879 20.8094C28.04 21.3412 28.2265 21.9657 28.2239 22.6036C28.2232 23.027 28.1391 23.446 27.9763 23.8367C27.8135 24.2274 27.5753 24.5821 27.2753 24.8804C26.9753 25.1788 26.6195 25.4149 26.2281 25.5754C25.8368 25.7358 25.4176 25.8173 24.9947 25.8152ZM26.6054 22.6036C26.5949 22.1851 26.4218 21.7871 26.1229 21.4943C25.8239 21.2015 25.4226 21.0369 25.0044 21.0356C24.5861 21.0342 24.1838 21.1962 23.883 21.487C23.5821 21.7779 23.4064 22.1747 23.3932 22.5932C23.3864 22.8081 23.4228 23.0223 23.5001 23.2229C23.5774 23.4235 23.6942 23.6066 23.8434 23.7613C23.9927 23.916 24.1714 24.0391 24.369 24.1235C24.5666 24.2078 24.7791 24.2516 24.9939 24.2523C25.2088 24.253 25.4216 24.2106 25.6197 24.1275C25.8179 24.0445 25.9974 23.9225 26.1476 23.7688C26.2979 23.6151 26.4158 23.4328 26.4944 23.2326C26.5731 23.0325 26.6108 22.8186 26.6054 22.6036Z" fill="#00D889"/>
</g>
<defs>
<clipPath id="clip0_138_1067">
<rect width="50" height="50" fill="white"/>
</clipPath>
</defs>
</svg>
