<svg width="50" height="50" viewBox="0 0 50 50" fill="none" xmlns="http://www.w3.org/2000/svg">
<g clip-path="url(#clip0_138_1204)">
<path d="M45.8683 32.053V32.6416C45.8683 34.123 45.8751 35.6044 45.8683 37.0765C45.8531 39.5087 44.215 41.1087 41.7227 41.1167C38.7496 41.1235 35.7765 41.1167 32.8048 41.1167H32.1559V44.2736C32.5279 44.2736 32.8985 44.2736 33.2691 44.2736C34.385 44.2924 35.5092 44.2359 36.6142 44.3557C38.4052 44.551 39.4426 45.7725 39.4426 47.5354C39.4426 48.0741 39.4536 48.6128 39.4426 49.1515C39.4316 49.6903 39.1216 49.9758 38.5691 50.0027C38.4493 50.0027 38.328 50.0027 38.2082 50.0027H11.8098C10.7613 50.0027 10.5574 49.7993 10.5574 48.7596C10.5574 48.3233 10.5822 47.8856 10.5574 47.4506C10.4335 45.6082 11.9668 44.5119 13.2729 44.3719C14.3448 44.2574 15.4332 44.2978 16.5133 44.2763C16.9418 44.2668 17.3716 44.2763 17.8414 44.2763V41.1141H17.2697C14.2387 41.1141 11.2201 41.1235 8.19605 41.1141C6.19561 41.106 4.63328 39.9141 4.22685 38.0919C4.15922 37.7286 4.13014 37.3594 4.14006 36.9903C4.13041 35.5465 4.14006 34.1014 4.14006 32.6564V32.053C3.56279 32.053 3.03788 32.053 2.50884 32.053C1.03331 32.0409 0.0289574 31.1022 0.0289574 29.6665C0.0115064 26.9802 0.0115064 24.2925 0.0289574 21.6035C0.0386014 20.1894 1.02504 19.2641 2.48267 19.2439C3.01171 19.2359 3.54213 19.2439 4.14694 19.2439C4.14694 18.5706 4.1373 17.9376 4.14694 17.3046C4.15797 16.7861 4.13041 16.2528 4.23925 15.7504C4.63741 13.9067 6.20112 12.7418 8.25804 12.731C10.6291 12.7175 13.0001 12.731 15.3712 12.731H15.9374C16.0297 12.2556 16.0917 11.8233 16.1992 11.4031C17.2655 7.2281 21.0212 4.49821 25.4919 4.64096C29.6016 4.77564 33.1836 7.8732 33.9524 11.9768C33.9752 12.0749 33.9872 12.1752 33.9882 12.2758C33.9731 12.6569 34.166 12.7404 34.5297 12.7377C36.9352 12.7233 39.3411 12.7233 41.7475 12.7377C43.8416 12.7471 45.488 13.9687 45.7952 15.8353C45.933 16.7053 45.86 17.6103 45.8779 18.4992C45.8779 18.7295 45.8779 18.9598 45.8779 19.2453C46.4882 19.2453 47.0338 19.2372 47.578 19.2453C48.9984 19.2695 49.9835 20.1988 49.9945 21.59C50.0147 24.2943 50.0147 26.9986 49.9945 29.7029C49.9821 31.1062 48.9695 32.0409 47.5229 32.053C46.9801 32.053 46.4565 32.053 45.8683 32.053ZM8.39444 19.2412H10.461C12.1611 19.248 13.1159 20.1732 13.1186 21.8257C13.1186 24.3621 13.1186 26.8985 13.1186 29.4349C13.1186 31.1197 12.1542 32.0517 10.4362 32.053C9.75562 32.053 9.07365 32.053 8.39995 32.053V34.3695H41.607V32.053C40.8878 32.053 40.2031 32.053 39.5184 32.053C37.8651 32.053 36.8897 31.1103 36.8869 29.4942C36.8869 26.9245 36.8869 24.3545 36.8869 21.7839C36.8869 20.1948 37.8582 19.2574 39.4894 19.2493C40.1893 19.2493 40.8892 19.2493 41.6001 19.2493V16.8588C38.8956 16.8588 36.2353 16.8588 33.5749 16.8588C33.5194 16.8646 33.4659 16.8823 33.4183 16.9107C33.3706 16.9391 33.33 16.9775 33.2994 17.0231C32.5595 18.4009 31.6365 19.6924 31.2328 21.2291C30.8785 22.5981 30.7204 24.0086 30.763 25.4202C30.7809 26.1865 30.5329 26.868 29.8565 27.2895C29.5038 27.509 29.4335 27.7528 29.4432 28.1083C29.4776 28.8679 29.1938 29.5171 28.5366 29.9197C28.1577 30.1527 28.0778 30.4086 28.0765 30.8086C28.0668 32.0624 27.1396 32.9378 25.8446 32.9567C25.3982 32.9634 24.9518 32.9567 24.504 32.9567C22.8604 32.9567 22.049 32.1702 22.0049 30.5541C22.0049 30.4086 21.9511 30.1877 21.8492 30.1312C20.9316 29.6261 20.59 28.8518 20.6354 27.8578C20.6335 27.7881 20.6155 27.7197 20.5828 27.6577C20.5502 27.5957 20.5036 27.5416 20.4467 27.4996C19.5043 26.9838 19.2067 26.169 19.2398 25.1697C19.2894 23.7502 19.1902 22.3226 18.6763 20.9947C18.1734 19.7018 17.4474 18.4924 16.8398 17.2373C16.7021 16.9369 16.5202 16.8332 16.1758 16.8332C13.7537 16.8494 11.3303 16.8427 8.90695 16.8427H8.38755L8.39444 19.2412ZM6.70949 32.0921H5.79607C5.79607 33.9142 5.76163 35.6947 5.82087 37.4791C5.83602 37.9088 6.08814 38.3842 6.36369 38.7424C6.85415 39.3794 7.60363 39.5128 8.39306 39.5128C19.457 39.5065 30.521 39.5065 41.5849 39.5128C41.7393 39.5128 41.8949 39.5127 42.0479 39.506C43.2809 39.4171 44.1819 38.5539 44.204 37.3512C44.2357 35.6556 44.2136 33.96 44.204 32.2631C44.1958 32.2041 44.1791 32.1465 44.1544 32.0921H43.2837V34.7856C43.2837 35.8415 43.0949 36.0287 42.0368 36.0287H7.97561C6.89824 36.0287 6.71087 35.8469 6.70949 34.8058V32.0921ZM29.1194 23.4728C29.1489 23.3994 29.172 23.3237 29.1883 23.2465C29.3784 20.957 30.2216 18.8843 31.4532 16.945C32.3322 15.5605 32.5664 14.0468 32.3391 12.4428C31.8142 8.71358 28.4223 6.04025 24.4558 6.24765C20.7456 6.44159 17.6541 9.62938 17.5673 13.2966C17.5314 14.8548 18.0426 16.2218 18.8692 17.5187C19.741 18.8721 20.3366 20.3776 20.623 21.9523C20.714 22.456 20.7842 22.9637 20.8614 23.4512H22.7034V16.2191C22.3038 16.2191 21.9443 16.2285 21.5847 16.2191C20.8812 16.183 20.2191 15.883 19.7364 15.3815C19.2537 14.88 18.9875 14.2158 18.9933 13.5272C18.9992 12.8386 19.2766 12.1788 19.7679 11.6853C20.2591 11.1917 20.9262 10.9025 21.6301 10.8778C21.9871 10.872 22.3416 10.9351 22.6735 11.0635C23.0054 11.192 23.3081 11.3833 23.5641 11.6265C23.8202 11.8696 24.0245 12.1598 24.1655 12.4804C24.3065 12.801 24.3813 13.1457 24.3856 13.4946C24.3952 13.8569 24.3856 14.2205 24.3856 14.572H25.6021C25.6021 14.203 25.6021 13.869 25.6021 13.5363C25.6324 12.0105 26.8282 10.859 28.3658 10.8711C29.0911 10.8729 29.786 11.1562 30.2975 11.6589C30.8091 12.1615 31.0955 12.8421 31.0937 13.5512C31.0918 14.2602 30.8019 14.9394 30.2878 15.4395C29.7736 15.9396 29.0773 16.2195 28.352 16.2178C27.9965 16.2258 27.6411 16.2178 27.2884 16.2178V23.4674L29.1194 23.4728ZM43.4049 30.4369C44.7275 30.4369 46.0487 30.4369 47.37 30.4369C48.1002 30.4369 48.3344 30.2147 48.3413 29.5171C48.3413 26.9331 48.3413 24.3486 48.3413 21.7637C48.3413 21.0769 48.1126 20.8547 47.4196 20.8533C44.7771 20.8533 42.1337 20.8533 39.4894 20.8533C38.773 20.8533 38.5347 21.0863 38.5333 21.7961C38.5333 24.363 38.5333 26.9304 38.5333 29.4982C38.5333 30.1999 38.7827 30.4409 39.4977 30.4409C40.7969 30.4369 42.1002 30.4369 43.4049 30.4369ZM12.2093 48.3489H37.7935C37.7935 48.0337 37.7935 47.7509 37.7935 47.4681C37.7935 46.6089 37.4105 46.1388 36.537 45.9611C36.2681 45.9081 35.9943 45.8819 35.72 45.8829C28.5752 45.8829 21.4299 45.8829 14.2842 45.8829C13.8567 45.8868 13.4331 45.9624 13.0318 46.1065C12.5854 46.2681 12.2355 46.5887 12.2148 47.1099C12.1969 47.5179 12.2093 47.9193 12.2093 48.3489ZM11.3565 25.6518L11.4681 25.6155C11.4681 24.332 11.4681 23.0485 11.4681 21.7651C11.4681 21.0917 11.2201 20.8547 10.5368 20.8533C7.89157 20.8533 5.24728 20.8533 2.6039 20.8533C1.87647 20.8533 1.6643 21.0661 1.66155 21.7961C1.66155 23.2398 1.66155 24.6835 1.66155 26.1259C1.67184 26.2708 1.68978 26.4151 1.71528 26.5582C2.36143 26.0815 2.94558 25.6451 3.53248 25.2115C4.14694 24.763 4.4776 24.794 4.99148 25.3461C5.43648 25.8269 5.87322 26.3145 6.32924 26.8168C7.27298 25.9764 8.16987 25.171 9.07503 24.3765C9.59167 23.9226 10.0491 23.9724 10.4748 24.5031C10.771 24.8869 11.0617 25.2707 11.3565 25.6518ZM19.5622 41.1396V44.2372H30.4379V41.1396H19.5622ZM4.10699 26.8128C3.53111 27.237 3.00482 27.7097 2.40276 28.0491C1.70564 28.441 1.57613 28.9918 1.65604 29.6854C1.7139 30.1729 1.93985 30.4315 2.44133 30.4329C5.19676 30.4409 7.93979 30.445 10.6883 30.4194C10.9157 30.4194 11.3111 30.2106 11.3372 30.0517C11.4295 29.5198 11.5838 28.8679 11.3565 28.4437C10.906 27.5979 10.2172 26.872 9.61785 26.0855C9.44012 26.2404 9.31062 26.3549 9.18387 26.4639C8.0817 27.4484 6.97952 28.437 5.86909 29.4161C5.44062 29.7931 4.96806 29.7918 4.62914 29.4416C4.29023 29.0915 4.32742 28.6497 4.70354 28.274C4.82202 28.1568 4.96117 28.0599 5.11685 27.9319L4.10699 26.8128ZM15.9953 15.244L16.0986 15.1403C15.852 14.9127 16.3011 14.3404 15.6137 14.3323C13.0897 14.3323 10.5657 14.3161 8.04312 14.3404C6.96437 14.3511 6.01512 14.9922 5.89251 15.9565C5.75474 17.0204 5.86082 18.1113 5.86082 19.2008H6.64198C6.66954 19.1375 6.69434 19.1066 6.69434 19.0769C6.70077 18.3048 6.70582 17.5331 6.70949 16.7618C6.71776 15.6764 7.16138 15.2427 8.27871 15.2414C10.5106 15.2414 12.7425 15.2414 14.9744 15.2414L15.9953 15.244ZM44.2246 19.2197C44.2246 18.4116 44.2246 17.6628 44.2246 16.9113C44.2246 15.1902 43.3581 14.339 41.607 14.3377C39.3246 14.3377 37.0417 14.3377 34.7584 14.3377C33.9496 14.3377 33.9317 14.3592 34.013 15.2454H41.4651C41.6373 15.2454 41.8095 15.2454 41.9803 15.2454C42.807 15.2939 43.2713 15.7464 43.2919 16.5585C43.3085 17.1618 43.2919 17.7706 43.2919 18.3699V19.217L44.2246 19.2197ZM24.4296 16.2272V23.4539H25.5704V16.2272H24.4296ZM20.9247 25.1158C20.8545 25.9535 20.9881 26.1044 21.7652 26.1044H28.301C29.0312 26.1044 29.2227 25.835 29.0229 25.1158H20.9247ZM27.7679 27.7434H22.3493C22.2184 28.5689 22.3493 28.7265 23.1759 28.7265H26.8847C27.7307 28.7305 27.8298 28.6201 27.7679 27.7434ZM22.7323 14.6043C22.7323 14.1828 22.7516 13.8286 22.7323 13.4784C22.7198 13.2067 22.5982 12.9507 22.394 12.7659C22.1898 12.5812 21.9193 12.4825 21.6412 12.4913C21.3724 12.4964 21.115 12.5981 20.918 12.777C20.7211 12.9558 20.5984 13.1993 20.5734 13.4609C20.5499 13.7323 20.6348 14.0021 20.8102 14.2137C20.9856 14.4254 21.2379 14.5624 21.5144 14.5962C21.9057 14.6353 22.2956 14.6043 22.7323 14.6043ZM27.2581 14.6043C27.6948 14.6043 28.0723 14.6299 28.4443 14.6043C28.7199 14.577 28.9743 14.4474 29.155 14.2422C29.3358 14.0369 29.429 13.7717 29.4156 13.5013C29.4022 13.2308 29.2831 12.9756 29.0829 12.7885C28.8827 12.6013 28.6166 12.4964 28.3396 12.4953C28.0614 12.4898 27.7923 12.5919 27.5906 12.7792C27.3889 12.9665 27.2709 13.2241 27.2622 13.4959C27.2457 13.8407 27.2622 14.1936 27.2622 14.607L27.2581 14.6043ZM23.6967 30.3696C23.6251 31.2207 23.7449 31.3514 24.5729 31.3514C24.9164 31.3514 25.2595 31.3514 25.6021 31.3514C26.3529 31.3514 26.5086 31.1615 26.3888 30.3696H23.6967Z" fill="#00D889"/>
<path d="M24.1774 1.71708C24.1774 1.4154 24.1636 1.11373 24.1774 0.813398C24.2036 0.33395 24.5342 0.00533888 24.9806 0.00533888C25.0878 0.00228138 25.1946 0.0202414 25.2945 0.0581594C25.3945 0.0960774 25.4857 0.153186 25.5628 0.226115C25.6398 0.299045 25.7011 0.386319 25.7431 0.482789C25.7851 0.579259 25.8069 0.682972 25.8072 0.787809C25.8307 1.43964 25.8307 2.09417 25.8072 2.74601C25.8002 2.94973 25.7133 3.14302 25.5646 3.2859C25.4159 3.42878 25.2167 3.51032 25.0082 3.51366C24.7925 3.51373 24.5853 3.43137 24.4308 3.28417C24.2764 3.13697 24.1869 2.93659 24.1815 2.7258C24.1609 2.38777 24.1774 2.05107 24.1774 1.71708Z" fill="#00D889"/>
<path d="M19.7136 4.42012C19.4849 4.65042 19.3003 4.91843 19.0537 5.06253C18.9785 5.10572 18.8952 5.13383 18.8087 5.14522C18.7222 5.15661 18.6343 5.15104 18.55 5.12885C18.4658 5.10666 18.3869 5.06829 18.3179 5.01598C18.249 4.96366 18.1914 4.89845 18.1486 4.82415C17.7504 4.22349 17.3908 3.59456 17.0464 2.95888C17.0026 2.88524 16.9744 2.80372 16.9636 2.7192C16.9527 2.63469 16.9594 2.54889 16.9831 2.46694C17.0069 2.38499 17.0474 2.30857 17.102 2.24222C17.1567 2.17588 17.2244 2.12098 17.3013 2.08079C17.5506 1.95285 18.0232 1.88012 18.1871 2.01884C18.9118 2.63027 19.2328 3.51106 19.7136 4.42012Z" fill="#00D889"/>
<path d="M33.0926 2.55883C33.0278 2.75988 32.9505 2.95687 32.8612 3.14871C32.5719 3.66048 32.2784 4.16956 31.967 4.66921C31.6915 5.11768 31.2424 5.24697 30.8318 5.02745C30.4212 4.80792 30.2807 4.3379 30.5563 3.86249C30.8594 3.32379 31.1762 2.78867 31.5069 2.25715C31.7218 1.91507 32.0883 1.77635 32.4396 1.93931C32.7041 2.0686 32.8915 2.36489 33.0926 2.55883Z" fill="#00D889"/>
<path d="M15.0363 8.61933C15.0363 9.35466 14.4439 9.75869 13.8915 9.49203C13.2654 9.18487 12.6578 8.84313 12.0715 8.46849C11.9833 8.41595 11.907 8.34624 11.8475 8.26369C11.788 8.18114 11.7465 8.08751 11.7256 7.98862C11.7047 7.88973 11.7048 7.78769 11.7259 7.68883C11.747 7.58998 11.7886 7.49642 11.8483 7.41397C12.099 7.03688 12.4793 6.91971 12.8747 7.11365C13.5 7.42164 14.1063 7.76521 14.6905 8.14257C14.8793 8.26378 14.9716 8.5291 15.0363 8.61933Z" fill="#00D889"/>
<path d="M35.6705 9.66974C35.45 9.46637 35.1125 9.29668 35.0409 9.05292C34.9692 8.80915 35.056 8.35125 35.2448 8.21388C35.8527 7.78522 36.4981 7.40982 37.1736 7.09203C37.518 6.92368 37.8858 7.04354 38.1201 7.37889C38.3543 7.71423 38.3791 8.11826 38.0594 8.33374C37.3706 8.79434 36.628 9.16335 35.9047 9.56603C35.8647 9.58893 35.8027 9.57546 35.7518 9.57816L35.6705 9.66974Z" fill="#00D889"/>
<path d="M40.7335 25.641C40.7335 24.9192 40.7184 24.1987 40.7335 23.4781C40.7625 22.4277 41.6635 21.9172 42.5948 22.429C43.8807 23.1365 45.1569 23.857 46.4235 24.5906C47.3466 25.1293 47.3466 26.1609 46.4235 26.6942C45.156 27.4269 43.8793 28.1451 42.5935 28.849C41.6635 29.3608 40.7625 28.849 40.7335 27.8013C40.7184 27.0834 40.7335 26.3616 40.7335 25.641ZM42.4336 24.1987V27.0861L44.9934 25.641L42.4336 24.1987Z" fill="#00D889"/>
<path d="M4.56173 23.0634C4.55936 22.9294 4.58502 22.7964 4.63712 22.6726C4.68922 22.5487 4.76668 22.4365 4.86473 22.3429C4.96278 22.2493 5.07935 22.1763 5.2073 22.1284C5.33526 22.0804 5.47188 22.0585 5.60879 22.0641C5.87638 22.0685 6.13194 22.1735 6.32233 22.3574C6.51273 22.5412 6.6233 22.7897 6.63106 23.0512C6.63007 23.3216 6.52128 23.5808 6.32781 23.774C6.13435 23.9671 5.87146 24.0789 5.59502 24.0856C5.45796 24.0867 5.32207 24.0609 5.19538 24.0098C5.06869 23.9586 4.95377 23.8832 4.85743 23.7879C4.7611 23.6926 4.68529 23.5794 4.6345 23.4549C4.58371 23.3305 4.55896 23.1973 4.56173 23.0634Z" fill="#00D889"/>
</g>
<defs>
<clipPath id="clip0_138_1204">
<rect width="50" height="50" fill="white"/>
</clipPath>
</defs>
</svg>
