<svg width="49" height="49" viewBox="0 0 49 49" fill="none" xmlns="http://www.w3.org/2000/svg">
<g clip-path="url(#clip0_138_1230)">
<path d="M11.2304 0H13.4396C13.8007 0.0469771 14.1619 0.0958717 14.524 0.139973C17.8569 0.528253 20.9853 1.58284 23.9849 3.04488C24.3797 3.23663 24.69 3.25005 25.0905 3.05255C27.4994 1.86758 30.0102 0.952006 32.6573 0.451556C33.5948 0.274193 34.5409 0.148601 35.4831 0H38.0717C38.5106 0.0651927 38.9515 0.118881 39.3885 0.191743C44.045 1.01049 47.1907 3.56547 48.5498 8.15772C48.7332 8.77609 48.8514 9.4146 48.9993 10.0435V14.445C48.9695 14.5007 48.9469 14.56 48.9321 14.6214C48.5171 17.9769 47.4202 21.1148 45.9651 24.1462C45.8724 24.3854 45.8783 24.6515 45.9814 24.8864C46.9899 26.9869 47.838 29.1459 48.3826 31.4123C48.6305 32.4439 48.7976 33.4956 49.0003 34.5387V38.7484C48.9369 39.0591 48.8706 39.3687 48.8082 39.6803C48.1291 43.2017 46.3435 45.9436 43.096 47.6022C40.1454 49.1083 36.9969 49.2234 33.7945 48.7459C30.7209 48.2886 27.825 47.2753 25.0444 45.9177C24.6996 45.749 24.4277 45.7308 24.0675 45.9005C23.059 46.3798 22.0409 46.841 20.9939 47.2283C17.3853 48.5743 13.6778 49.3739 9.79065 48.7987C7.22323 48.4152 4.95356 47.4047 3.14878 45.4959C0.947309 43.1662 0.107831 40.3092 0.0242674 37.1896C-0.0573753 34.1869 0.592884 31.305 1.60429 28.4959C1.71667 28.1853 1.68594 28.007 1.43428 27.7692C0.638928 27.0269 0.141065 26.0212 0.0334487 24.9397C-0.0741671 23.8581 0.215804 22.7744 0.849338 21.8904C1.1202 21.5146 1.60525 21.1838 1.65712 20.7879C1.71379 20.3488 1.38818 19.8598 1.22874 19.3929C1.21817 19.3632 1.2028 19.3344 1.19416 19.3047C0.192355 15.9885 -0.398353 12.6253 0.315299 9.17396C1.2662 4.58075 3.98922 1.6001 8.59578 0.449638C9.45735 0.237762 10.3516 0.147642 11.2304 0ZM9.11734 24.0897C9.22395 25.8758 8.52183 27.2103 7.19633 28.2495C7.27702 28.3713 7.33657 28.4653 7.399 28.5563C10.2036 32.6583 13.6046 36.3205 17.49 39.4224C19.576 41.1082 21.8146 42.5965 24.177 43.868C24.3298 43.9504 24.5757 44.0377 24.6967 43.9725C25.6572 43.4538 26.6042 42.8987 27.5398 42.3638C26.9087 40.4578 27.0105 38.8673 27.7972 38.0227L28.9325 38.7053C28.24 40.6227 28.6078 42.0723 29.9958 42.9448C30.5994 43.3235 31.3149 43.4843 32.0229 43.4001C32.7308 43.3159 33.3885 42.9919 33.886 42.4821C34.3836 41.9724 34.6909 41.3077 34.7568 40.5991C34.8226 39.8905 34.643 39.1807 34.2479 38.5883C33.8637 37.9912 33.2796 37.5495 32.5997 37.342C31.5767 37.0295 30.6182 37.2212 29.7268 37.8329C29.4262 37.4379 29.1505 37.0784 28.8701 36.7112C29.5533 36.1737 30.3803 35.8496 31.2473 35.7793C32.4465 35.6703 33.6404 36.0379 34.5697 36.8023C34.609 36.7858 34.6466 36.7656 34.682 36.7419C38.4069 33.2397 41.564 29.2955 43.9912 24.7886C44.0326 24.6859 44.0511 24.5754 44.0457 24.4649C44.0402 24.3544 44.0108 24.2463 43.9595 24.1482C42.9875 22.5586 42.0203 20.9633 40.982 19.415C40.3279 18.438 39.5604 17.5378 38.8429 16.6011C36.7615 17.7171 34.7896 17.6845 33.1049 16.0432C31.376 14.3539 31.3174 12.3492 32.4201 10.2784C32.4024 10.2441 32.3808 10.2119 32.3557 10.1825C30.0368 8.22641 27.5187 6.51853 24.8427 5.08695C24.6679 4.99108 24.3451 5.03422 24.1578 5.13584C18.5495 8.17689 13.8315 12.2773 9.8089 17.1946C8.8849 18.3259 8.04062 19.5223 7.25685 20.5597C7.55364 20.9307 7.78992 21.2116 8.01084 21.505C8.23175 21.7983 8.44403 22.1128 8.67839 22.4445L7.39612 23.083C6.2877 21.5031 4.80276 20.994 3.31591 21.6449C2.65223 21.9379 2.11174 22.4528 1.78757 23.1009C1.46341 23.749 1.37589 24.4896 1.54009 25.1951C1.70429 25.9007 2.10993 26.527 2.6871 26.9661C3.26426 27.4051 3.9768 27.6295 4.70191 27.6005C5.42721 27.5754 6.1201 27.2945 6.65749 26.8076C7.41533 26.1241 7.72845 25.2497 7.70156 24.2191L9.11734 24.0897ZM45.0036 22.9133C45.4723 21.6948 45.9593 20.553 46.3483 19.3795C47.377 16.3116 47.9812 13.1795 47.4606 9.93326C46.8977 6.39464 45.0929 3.75625 41.7187 2.32585C40.2299 1.69405 38.6547 1.45246 37.0449 1.44095C34.0164 1.4189 31.1311 2.12643 28.3255 3.20595C27.6041 3.48398 26.8972 3.79843 26.2681 4.06208L33.5477 9.12411C35.4159 7.78957 37.6039 8.17306 38.5538 8.94195L37.8613 10.0924C36.0517 9.3542 34.5092 9.74727 33.6293 11.1297C33.2409 11.7404 33.0782 12.4672 33.1692 13.1847C33.2602 13.9023 33.5992 14.5657 34.1278 15.0605C35.2084 16.0786 36.9056 16.1985 38.089 15.305C39.6728 14.1085 39.7045 12.2534 38.7613 10.8565L39.8745 9.99366C41.1578 11.9025 41.1165 13.7528 39.8937 15.5782C40.7937 16.7775 41.7081 17.928 42.5505 19.1283C43.3928 20.3286 44.1449 21.5826 45.0036 22.9133ZM22.8256 4.03524C21.9295 3.67764 20.9824 3.26155 20.0094 2.91929C16.7543 1.77458 13.4358 1.11211 9.95778 1.6164C5.50297 2.26161 2.32563 5.39182 1.63311 9.82589C1.20761 12.5592 1.54474 15.2244 2.26992 17.8599C2.48699 18.648 2.75689 19.4217 2.95476 20.0516C3.85667 20.0381 4.63564 19.9643 5.39923 20.0391C5.79208 20.0784 5.95921 19.9873 6.15899 19.693C9.07411 15.3989 12.5502 11.6129 16.6486 8.42904C18.634 6.88646 20.7471 5.50687 22.8256 4.03524ZM3.07386 28.8046C3.03544 28.8468 3.00566 28.866 2.99606 28.8928C2.88272 29.2073 2.76554 29.5208 2.66277 29.8381C1.67345 32.8897 1.10963 35.9912 1.6504 39.2019C2.10567 41.9093 3.33512 44.1662 5.65665 45.7384C7.52963 47.0059 9.64849 47.4919 11.8701 47.5341C15.7362 47.6089 19.3352 46.516 22.8074 44.9207C22.8391 44.9063 22.8554 44.8574 22.8842 44.8162C22.8035 44.7663 22.7363 44.7203 22.6681 44.6839C19.2362 42.731 16.1232 40.3533 13.2638 37.6411C10.58 35.1079 8.17974 32.2913 6.1052 29.2409C6.00915 29.0961 5.78055 28.9063 5.65569 28.9331C4.79826 29.1117 3.90925 29.0674 3.07386 28.8046ZM26.1355 44.8679C26.8175 45.1556 27.437 45.4355 28.0709 45.6809C31.4211 46.9829 34.8549 47.8352 38.4895 47.4555C41.2826 47.1679 43.7012 46.1066 45.4733 43.8479C47.0149 41.8844 47.5864 39.5854 47.6383 37.1455C47.7141 33.2876 46.6124 29.6982 45.0151 26.2343C45.0007 26.2027 44.9537 26.1854 44.9047 26.148C42.4074 30.5725 39.2319 34.4409 35.5561 37.9172C35.6435 38.1004 35.7213 38.2557 35.7934 38.4129C36.1667 39.2209 36.2936 40.1206 36.1583 41.0001C36.0231 41.8796 35.6316 42.6999 35.0326 43.3589C33.3642 45.1939 30.6211 45.3722 28.6933 43.7645C28.5387 43.636 28.4311 43.4596 28.1708 43.6283C27.5273 44.0415 26.8645 44.425 26.1355 44.8679Z" fill="#00D889"/>
<path d="M19.6902 29.9762V31.9004H21.4479V33.3433H12.7842V31.9253H14.2153C14.2153 31.3357 14.2086 30.7988 14.2153 30.2619C14.2278 29.4336 14.175 28.5957 14.2854 27.7808C14.4862 26.3053 15.3583 25.3111 16.7827 24.8711C18.259 24.4147 19.7545 24.0169 21.2462 23.6152C21.5968 23.5193 21.7783 23.3688 21.7072 22.9939C21.7019 22.9622 21.7019 22.9298 21.7072 22.898C21.81 22.0697 21.6227 21.4245 20.9148 20.8349C20.4975 20.4809 20.161 20.0419 19.9279 19.5473C19.6948 19.0526 19.5705 18.5139 19.5634 17.9674C19.5269 16.6673 19.4558 15.3328 19.6988 14.0702C20.1512 11.7127 22.515 10.0704 24.8625 10.2679C27.4366 10.4846 29.4191 12.4126 29.5449 14.9244C29.6094 16.0999 29.5757 17.2787 29.4441 18.4486C29.3067 19.6116 28.6382 20.5492 27.7267 21.2855C27.4818 21.483 27.3425 21.6757 27.3713 22.0016C27.4097 22.4752 27.2368 23.0802 27.4674 23.3908C27.6979 23.7014 28.3232 23.7149 28.7765 23.852C29.277 24.0044 29.7793 24.1482 30.3133 24.3045C30.1827 24.7637 30.0636 25.1875 29.9291 25.6716C29.1281 25.4482 28.3453 25.2526 27.5778 25.0072C27.1667 24.8759 26.8728 24.8922 26.5078 25.1913C25.9367 25.6504 25.2226 25.8954 24.4894 25.8839C23.7562 25.8723 23.0502 25.6049 22.4939 25.128C22.2249 24.8998 22.0079 24.8672 21.6851 24.9622C20.2165 25.3926 18.7393 25.7914 17.2668 26.2162C16.3304 26.4865 15.7003 27.2324 15.6686 28.2007C15.6292 29.4096 15.659 30.6215 15.659 31.8764H18.2494V29.9762H19.6902ZM20.9965 15.5255C20.9965 16.373 20.9312 17.1553 21.0099 17.9223C21.1703 19.4831 22.5246 20.7898 24.0585 20.9576C25.8009 21.1493 27.3771 20.2079 27.9121 18.6346C27.938 18.5426 27.9446 18.4463 27.9315 18.3516C27.9185 18.2569 27.886 18.1659 27.8362 18.0843C27.2714 17.2953 26.6836 16.5255 26.0833 15.7594C25.9896 15.6375 25.8516 15.5572 25.6991 15.5361C24.1421 15.5207 22.5823 15.5255 20.9965 15.5255ZM28.0917 16.0106C28.3991 13.795 27.0409 12.0099 24.9336 11.7252C23.3314 11.5047 21.4191 12.7193 21.2472 14.0932C22.8906 14.0932 24.5311 14.1037 26.1717 14.0855C26.3192 14.0727 26.4675 14.1012 26.5997 14.168C26.7319 14.2347 26.8428 14.337 26.9199 14.4633C27.2724 14.9637 27.6623 15.4431 28.0917 16.0106ZM23.148 22.3592C23.2901 22.9575 22.8013 23.7062 23.6052 24.1808C23.9072 24.3605 24.2547 24.4493 24.6061 24.4366C24.9575 24.4238 25.2976 24.31 25.5857 24.1089C26.2667 23.6094 25.8009 22.9172 25.9286 22.3592H23.148Z" fill="#00D889"/>
<path d="M31.3258 26.0627C31.4602 25.5834 31.5803 25.1615 31.6994 24.7426C33.5561 24.9707 34.8508 26.4682 34.8758 28.4135C34.8902 29.5591 34.8758 30.7039 34.8758 31.9003H36.3165V33.3384H22.9502V31.9454H29.3913V29.9791H30.8407V31.9253C31.6648 31.9253 32.4275 31.9348 33.1891 31.9109C33.2746 31.9109 33.4245 31.7134 33.4254 31.606C33.4408 30.4757 33.4638 29.3425 33.4187 28.2131C33.3793 27.2084 32.7675 26.5085 31.7858 26.2104C31.6514 26.173 31.5179 26.1241 31.3258 26.0627Z" fill="#00D889"/>
<path d="M26.3284 27.6513C26.4667 27.1623 26.5877 26.7405 26.7203 26.2765L28.7373 26.8383C28.6115 27.3004 28.4924 27.7337 28.3589 28.2198L26.3284 27.6513Z" fill="#00D889"/>
<path d="M5.26634 25.1903H3.87842V23.8107H5.26634V25.1903Z" fill="#00D889"/>
<path d="M31.1261 29.0012L29.7449 28.6091C29.8745 28.1489 29.9965 27.7155 30.1291 27.2352L31.5016 27.6187L31.1261 29.0012Z" fill="#00D889"/>
<path d="M32.3372 41.0197H30.9829V39.6305H32.3372V41.0197Z" fill="#00D889"/>
<path d="M36.962 12.1124V13.4748H35.5798V12.1124H36.962Z" fill="#00D889"/>
</g>
<defs>
<clipPath id="clip0_138_1230">
<rect width="49" height="49" fill="white"/>
</clipPath>
</defs>
</svg>
